<?xml version="1.0" encoding="utf-8" ?>
<svg baseProfile="full" height="1024" version="1.1" viewBox="0 0 1024 1024" width="1024" xmlns="http://www.w3.org/2000/svg" xmlns:ev="http://www.w3.org/2001/xml-events" xmlns:xlink="http://www.w3.org/1999/xlink"><defs /><g fill="#000000" fill-rule="evenodd" stroke="none"><path d="M805 777 L805 828 L816 828 L816 807 L817 806 L830 806 L831 807 L831 828 L843 828 L843 777 L831 777 L831 796 L830 797 L817 797 L816 796 L816 777 Z M711 777 L711 792 L710 793 L710 807 L709 808 L709 812 L708 813 L708 815 L704 819 L701 819 L701 823 L702 824 L702 829 L708 829 L709 828 L711 828 L712 827 L713 827 L716 824 L716 823 L717 822 L717 821 L718 820 L718 818 L719 817 L719 814 L720 813 L720 805 L721 804 L721 789 L722 788 L731 788 L732 789 L732 828 L743 828 L743 777 L736 777 L735 778 L728 778 L727 777 Z M612 777 L612 828 L624 828 L624 802 L625 801 L626 802 L626 803 L627 804 L627 805 L628 806 L628 807 L630 809 L630 810 L631 811 L631 812 L632 813 L632 814 L633 815 L633 816 L634 817 L634 818 L635 819 L635 820 L636 821 L636 822 L637 823 L637 824 L639 826 L639 828 L653 828 L653 827 L652 826 L652 825 L650 823 L650 822 L649 821 L649 820 L648 819 L648 818 L647 817 L647 816 L646 815 L646 814 L645 813 L645 812 L643 810 L643 809 L642 808 L642 807 L641 806 L641 805 L640 804 L640 803 L638 801 L638 799 L639 798 L639 797 L640 796 L640 795 L642 793 L642 792 L644 790 L644 789 L645 788 L645 787 L647 785 L647 784 L648 783 L648 782 L650 780 L650 779 L651 778 L651 777 L639 777 L638 778 L638 779 L636 781 L636 782 L635 783 L635 784 L633 786 L633 787 L632 788 L632 789 L631 790 L631 791 L629 793 L629 794 L628 795 L628 796 L626 798 L626 799 L625 800 L624 799 L624 778 L616 778 L615 777 Z M521 777 L520 778 L521 779 L521 796 L520 797 L507 797 L506 796 L506 778 L494 778 L494 829 L506 829 L506 807 L507 806 L520 806 L521 807 L521 827 L520 828 L532 828 L532 777 Z M375 777 L375 828 L387 828 L386 827 L386 807 L387 806 L401 806 L402 807 L402 827 L401 828 L414 828 L413 827 L413 784 L414 783 L414 781 L413 780 L414 779 L414 778 L413 777 L402 777 L402 796 L401 797 L387 797 L386 796 L386 777 Z M284 777 L284 783 L283 784 L283 804 L282 805 L282 811 L281 812 L281 815 L277 819 L274 819 L274 825 L275 826 L275 829 L281 829 L282 828 L284 828 L285 827 L286 827 L288 825 L288 824 L290 822 L290 820 L291 819 L291 817 L292 816 L292 812 L293 811 L293 800 L294 799 L294 788 L295 787 L296 788 L303 788 L304 789 L304 828 L316 828 L316 777 Z M185 777 L185 786 L184 787 L184 798 L183 799 L183 805 L182 806 L182 809 L181 810 L181 813 L180 814 L180 815 L178 817 L178 818 L177 819 L173 819 L173 841 L184 841 L184 830 L186 828 L211 828 L213 830 L213 841 L224 841 L224 819 L219 819 L218 818 L218 778 L217 777 Z M204 788 L205 787 L206 788 L206 818 L205 819 L190 819 L189 818 L190 817 L190 815 L191 814 L191 813 L192 812 L192 809 L193 808 L193 803 L194 802 L194 796 L195 795 L195 789 L196 788 Z M874 776 L873 777 L868 777 L867 778 L865 778 L864 779 L863 779 L857 785 L857 786 L856 787 L856 788 L855 789 L855 791 L854 792 L854 796 L853 797 L853 808 L854 809 L854 814 L855 815 L855 817 L856 818 L856 819 L857 820 L857 821 L858 822 L858 823 L861 826 L862 826 L864 828 L866 828 L867 829 L882 829 L883 828 L885 828 L886 827 L887 827 L893 821 L893 820 L887 814 L882 819 L880 819 L879 820 L873 820 L872 819 L871 819 L867 815 L867 814 L866 813 L866 810 L865 809 L865 807 L866 806 L894 806 L894 795 L893 794 L893 790 L892 789 L892 788 L891 787 L891 786 L890 785 L890 784 L885 779 L884 779 L883 778 L882 778 L881 777 L876 777 L875 776 Z M871 786 L877 786 L878 787 L879 787 L881 789 L881 790 L882 791 L882 794 L883 795 L883 797 L882 798 L866 798 L865 797 L865 796 L866 795 L866 792 L867 791 L867 790 Z M773 776 L772 777 L768 777 L767 778 L765 778 L764 779 L763 779 L758 784 L758 785 L757 786 L757 787 L756 788 L756 789 L755 790 L755 793 L754 794 L754 811 L755 812 L755 815 L756 816 L756 818 L757 819 L757 820 L758 821 L758 822 L763 827 L764 827 L765 828 L767 828 L768 829 L782 829 L783 828 L785 828 L786 827 L787 827 L790 824 L791 824 L791 823 L793 821 L793 820 L787 814 L782 819 L780 819 L779 820 L773 820 L772 819 L771 819 L767 815 L767 813 L766 812 L766 809 L765 808 L765 807 L766 806 L794 806 L794 792 L793 791 L793 789 L792 788 L792 787 L791 786 L791 785 L790 784 L790 783 L786 779 L785 779 L784 778 L782 778 L781 777 L777 777 L776 776 Z M774 786 L775 785 L776 786 L778 786 L782 790 L782 792 L783 793 L783 797 L782 798 L768 798 L767 799 L766 798 L766 792 L767 791 L767 790 L771 786 Z M673 776 L672 777 L669 777 L668 778 L666 778 L665 779 L664 779 L660 783 L660 784 L658 786 L658 788 L657 789 L657 791 L656 792 L656 799 L655 800 L655 805 L656 806 L656 812 L657 813 L657 816 L658 817 L658 819 L659 820 L659 821 L664 826 L665 826 L667 828 L670 828 L671 829 L681 829 L682 828 L685 828 L687 826 L688 826 L692 822 L692 821 L693 820 L693 819 L694 818 L694 817 L695 816 L695 814 L696 813 L696 808 L697 807 L697 797 L696 796 L696 791 L695 790 L695 788 L694 787 L694 786 L693 785 L693 784 L687 778 L685 778 L684 777 L681 777 L680 776 Z M673 786 L674 785 L677 785 L678 786 L679 786 L680 787 L681 787 L682 788 L682 789 L683 790 L683 793 L684 794 L684 812 L683 813 L683 815 L682 816 L682 817 L680 819 L679 819 L678 820 L673 820 L669 816 L669 815 L668 814 L668 791 L669 790 L669 789 L672 786 Z M560 776 L559 777 L554 777 L553 778 L552 778 L551 779 L550 779 L549 780 L548 780 L545 783 L545 784 L543 786 L543 788 L545 790 L546 790 L548 792 L549 792 L554 787 L555 787 L556 786 L564 786 L567 789 L567 790 L568 791 L568 797 L567 798 L561 798 L560 799 L556 799 L555 800 L553 800 L552 801 L551 801 L550 802 L549 802 L543 808 L543 810 L542 811 L542 819 L543 820 L543 822 L544 823 L544 824 L547 827 L548 827 L549 828 L551 828 L552 829 L559 829 L560 828 L562 828 L563 827 L564 827 L568 823 L569 824 L569 828 L580 828 L580 790 L579 789 L579 786 L578 785 L578 784 L577 783 L577 782 L573 778 L571 778 L570 777 L566 777 L565 776 Z M563 806 L564 805 L567 805 L568 806 L568 815 L567 816 L567 817 L566 818 L565 818 L564 819 L563 819 L562 820 L559 820 L558 819 L557 819 L554 816 L554 811 L555 810 L555 809 L556 808 L557 808 L559 806 Z M440 776 L439 777 L436 777 L435 778 L434 778 L433 779 L432 779 L431 780 L430 780 L427 783 L427 784 L426 785 L426 786 L425 787 L425 789 L424 790 L424 793 L423 794 L423 812 L424 813 L424 816 L425 817 L425 819 L426 820 L426 821 L427 822 L427 823 L430 826 L431 826 L432 827 L433 827 L434 828 L437 828 L438 829 L449 829 L450 828 L452 828 L453 827 L454 827 L455 826 L456 826 L459 823 L459 822 L460 821 L460 820 L461 819 L461 817 L462 816 L462 812 L463 811 L463 795 L462 794 L462 789 L461 788 L461 787 L460 786 L460 785 L459 784 L459 783 L455 779 L454 779 L453 778 L451 778 L450 777 L446 777 L445 776 Z M440 786 L445 786 L446 787 L447 787 L449 789 L449 790 L450 791 L450 793 L451 794 L451 812 L450 813 L450 815 L449 816 L449 817 L447 819 L446 819 L445 820 L440 820 L436 816 L436 814 L435 813 L435 793 L436 792 L436 790 Z M342 776 L341 777 L336 777 L335 778 L334 778 L333 779 L332 779 L331 780 L330 780 L326 784 L326 785 L324 787 L328 791 L329 791 L330 792 L332 792 L332 791 L336 787 L337 787 L338 786 L347 786 L350 789 L350 791 L351 792 L351 797 L350 798 L344 798 L343 799 L339 799 L338 800 L336 800 L335 801 L334 801 L333 802 L332 802 L331 803 L330 803 L327 806 L327 807 L326 808 L326 809 L325 810 L325 812 L324 813 L324 818 L325 819 L325 821 L326 822 L326 823 L330 827 L331 827 L332 828 L333 828 L334 829 L341 829 L342 828 L344 828 L345 827 L346 827 L350 823 L351 824 L351 828 L363 828 L363 792 L362 791 L362 787 L361 786 L361 784 L359 782 L359 781 L357 779 L356 779 L355 778 L354 778 L353 777 L349 777 L348 776 Z M345 806 L346 805 L350 805 L351 806 L351 815 L347 819 L346 819 L345 820 L341 820 L337 816 L337 815 L336 814 L336 813 L337 812 L337 810 L340 807 L341 807 L342 806 Z M249 776 L248 777 L243 777 L242 778 L240 778 L238 780 L237 780 L234 783 L234 784 L232 786 L232 787 L231 788 L231 790 L230 791 L230 794 L229 795 L229 810 L230 811 L230 815 L231 816 L231 817 L232 818 L232 820 L234 822 L234 823 L237 826 L238 826 L240 828 L243 828 L244 829 L257 829 L258 828 L261 828 L263 826 L264 826 L268 822 L268 820 L263 815 L263 814 L259 818 L258 818 L257 819 L256 819 L255 820 L249 820 L248 819 L247 819 L243 815 L243 814 L242 813 L242 811 L241 810 L241 807 L242 806 L269 806 L270 805 L270 797 L269 796 L269 791 L268 790 L268 788 L267 787 L267 786 L266 785 L266 784 L261 779 L260 779 L259 778 L258 778 L257 777 L252 777 L251 776 Z M246 787 L247 786 L253 786 L254 787 L255 787 L256 788 L256 789 L257 790 L257 791 L258 792 L258 797 L257 798 L242 798 L241 797 L241 794 L242 793 L242 791 L244 789 L244 788 L245 787 Z M140 758 L139 759 L136 759 L135 760 L133 760 L131 762 L130 762 L127 765 L127 766 L125 768 L125 769 L124 770 L124 771 L123 772 L123 775 L122 776 L122 779 L121 780 L121 806 L122 807 L122 812 L123 813 L123 815 L124 816 L124 817 L125 818 L125 819 L126 820 L126 821 L131 826 L132 826 L133 827 L134 827 L135 828 L137 828 L138 829 L153 829 L154 828 L157 828 L158 827 L159 827 L161 825 L162 825 L165 822 L165 821 L167 819 L167 818 L168 817 L168 816 L169 815 L169 814 L170 813 L170 811 L169 811 L168 810 L167 810 L166 809 L164 809 L163 808 L161 808 L160 807 L159 807 L158 806 L157 806 L157 808 L156 809 L156 811 L155 812 L155 813 L151 817 L150 817 L149 818 L143 818 L142 817 L141 817 L137 813 L137 812 L136 811 L136 809 L135 808 L135 804 L134 803 L134 786 L135 785 L135 779 L136 778 L136 776 L137 775 L137 774 L138 773 L138 772 L140 770 L141 770 L142 769 L144 769 L145 768 L146 768 L147 769 L150 769 L155 774 L155 776 L156 777 L156 780 L157 781 L158 780 L160 780 L161 779 L163 779 L164 778 L165 778 L166 777 L168 777 L168 775 L167 774 L167 772 L166 771 L166 769 L164 767 L164 766 L159 761 L158 761 L157 760 L155 760 L154 759 L151 759 L150 758 Z M203 171 L202 172 L195 172 L194 173 L190 173 L189 174 L186 174 L185 175 L183 175 L182 176 L180 176 L179 177 L178 177 L177 178 L175 178 L174 179 L173 179 L172 180 L171 180 L170 181 L169 181 L167 183 L166 183 L165 184 L164 184 L162 186 L161 186 L158 189 L157 189 L144 202 L144 203 L141 206 L141 207 L139 209 L139 210 L138 211 L138 212 L136 214 L136 215 L135 216 L135 217 L134 218 L134 220 L133 221 L133 222 L132 223 L132 225 L131 226 L131 228 L130 229 L130 231 L129 232 L129 235 L128 236 L128 242 L127 243 L127 651 L128 652 L128 657 L129 658 L129 662 L130 663 L130 665 L131 666 L131 669 L132 670 L132 671 L133 672 L133 674 L134 675 L134 676 L135 677 L135 678 L136 679 L136 680 L137 681 L137 682 L138 683 L138 684 L140 686 L140 687 L142 689 L142 690 L145 693 L145 694 L155 704 L156 704 L159 707 L160 707 L162 709 L163 709 L165 711 L166 711 L167 712 L168 712 L169 713 L170 713 L171 714 L172 714 L173 715 L174 715 L175 716 L176 716 L177 717 L179 717 L180 718 L182 718 L183 719 L185 719 L186 720 L189 720 L190 721 L195 721 L196 722 L203 722 L204 723 L818 723 L819 722 L826 722 L827 721 L831 721 L832 720 L835 720 L836 719 L839 719 L840 718 L842 718 L843 717 L845 717 L846 716 L847 716 L848 715 L849 715 L850 714 L851 714 L852 713 L853 713 L854 712 L855 712 L857 710 L858 710 L860 708 L861 708 L863 706 L864 706 L869 701 L870 701 L874 697 L874 696 L879 691 L879 690 L881 688 L881 687 L883 685 L883 684 L884 683 L884 682 L885 681 L885 680 L886 679 L886 678 L887 677 L887 676 L888 675 L888 674 L889 673 L889 671 L890 670 L890 668 L891 667 L891 665 L892 664 L892 661 L893 660 L893 656 L894 655 L894 648 L895 647 L895 629 L897 627 L898 627 L900 625 L901 625 L903 623 L904 623 L914 613 L914 612 L916 610 L916 609 L918 607 L918 606 L919 605 L919 604 L920 603 L920 602 L921 601 L921 600 L922 599 L922 597 L923 596 L923 593 L924 592 L924 589 L925 588 L925 579 L926 578 L926 576 L925 575 L925 568 L924 567 L924 565 L923 564 L923 562 L922 561 L922 560 L921 559 L921 558 L919 556 L919 555 L917 553 L917 552 L906 541 L905 541 L902 538 L901 538 L900 537 L899 537 L897 535 L896 535 L895 534 L895 247 L894 246 L894 240 L893 239 L893 235 L892 234 L892 232 L891 231 L891 228 L890 227 L890 226 L889 225 L889 223 L888 222 L888 221 L887 220 L887 219 L886 218 L886 217 L885 216 L885 215 L884 214 L884 213 L883 212 L883 211 L881 209 L881 208 L879 206 L879 205 L876 202 L876 201 L865 190 L864 190 L861 187 L860 187 L858 185 L857 185 L855 183 L854 183 L853 182 L852 182 L851 181 L850 181 L849 180 L848 180 L847 179 L846 179 L845 178 L844 178 L843 177 L841 177 L840 176 L838 176 L837 175 L835 175 L834 174 L831 174 L830 173 L826 173 L825 172 L818 172 L817 171 Z M443 652 L444 651 L445 652 L444 653 Z M237 643 L238 642 L239 642 L240 643 L240 646 L241 647 L241 649 L242 650 L242 651 L243 652 L243 653 L244 654 L244 655 L246 657 L246 658 L258 670 L259 670 L263 674 L264 674 L267 677 L268 677 L270 679 L271 679 L273 681 L274 681 L276 683 L275 684 L274 684 L273 685 L272 685 L271 686 L269 686 L268 687 L266 687 L265 688 L263 688 L262 689 L259 689 L258 690 L254 690 L253 691 L241 691 L239 689 L239 687 L240 686 L240 684 L242 682 L242 681 L249 674 L248 674 L247 675 L246 675 L245 676 L243 676 L242 677 L241 677 L240 678 L239 678 L238 679 L237 679 L235 681 L234 681 L233 682 L232 682 L230 684 L229 684 L228 685 L226 685 L225 686 L218 686 L217 685 L216 685 L215 684 L215 680 L216 679 L216 677 L218 675 L218 674 L225 667 L226 667 L229 664 L230 664 L232 662 L233 662 L234 661 L235 661 L236 660 L237 660 L238 659 L239 659 L237 659 L236 660 L232 660 L231 661 L229 661 L228 662 L226 662 L225 663 L224 663 L223 664 L222 664 L221 665 L220 665 L218 667 L217 667 L209 675 L209 676 L205 680 L204 680 L203 681 L201 679 L201 677 L200 676 L200 671 L201 670 L201 668 L202 667 L202 666 L203 665 L203 664 L204 663 L204 662 L211 655 L212 655 L214 653 L215 653 L216 652 L217 652 L219 650 L220 650 L221 649 L222 649 L223 648 L224 648 L225 647 L227 647 L228 646 L229 646 L230 645 L231 645 L232 644 L234 644 L235 643 Z M574 605 L575 604 L576 605 L575 606 Z M575 604 L576 603 L577 604 L576 605 Z M576 603 L577 602 L578 603 L577 604 Z M577 602 L578 601 L579 602 L578 603 Z M581 598 L582 598 L583 599 L580 602 L579 602 L578 601 Z M426 562 L427 561 L463 561 L464 562 L470 562 L471 563 L475 563 L476 564 L479 564 L480 565 L483 565 L484 566 L486 566 L487 567 L489 567 L490 568 L491 568 L492 569 L491 570 L488 570 L487 569 L469 569 L468 570 L458 570 L457 571 L450 571 L449 572 L444 572 L443 573 L440 573 L439 574 L437 574 L443 574 L444 575 L448 575 L449 576 L452 576 L453 577 L456 577 L457 578 L459 578 L460 579 L462 579 L463 580 L464 580 L465 581 L464 582 L428 582 L427 583 L419 583 L418 584 L414 584 L415 584 L416 585 L419 585 L420 586 L423 586 L424 587 L428 587 L429 588 L432 588 L433 589 L432 590 L419 590 L418 591 L410 591 L409 592 L404 592 L403 593 L400 593 L399 594 L396 594 L395 595 L393 595 L392 596 L389 596 L388 597 L386 597 L385 598 L382 598 L381 599 L378 599 L377 600 L375 600 L374 601 L371 601 L370 602 L368 602 L367 603 L364 603 L363 604 L360 604 L359 605 L355 605 L354 606 L351 606 L350 607 L346 607 L345 608 L341 608 L340 609 L336 609 L335 610 L331 610 L330 611 L326 611 L325 612 L322 612 L321 611 L322 610 L323 610 L324 609 L325 609 L326 608 L327 608 L328 607 L329 607 L330 606 L332 606 L333 605 L334 605 L335 604 L336 604 L337 603 L339 603 L340 602 L341 602 L342 601 L343 601 L344 600 L346 600 L347 599 L349 599 L350 598 L351 598 L352 597 L354 597 L355 596 L357 596 L358 595 L359 595 L360 594 L362 594 L363 593 L365 593 L366 592 L367 592 L368 591 L370 591 L371 590 L372 590 L373 589 L375 589 L376 588 L364 588 L363 589 L358 589 L357 590 L354 590 L353 591 L350 591 L349 592 L348 592 L347 591 L349 589 L350 589 L352 587 L353 587 L354 586 L355 586 L357 584 L358 584 L360 582 L361 582 L362 581 L363 581 L364 580 L365 580 L367 578 L368 578 L369 577 L370 577 L371 576 L372 576 L373 575 L374 575 L375 574 L377 574 L378 573 L379 573 L380 572 L382 572 L383 571 L384 571 L385 570 L387 570 L388 569 L390 569 L391 568 L393 568 L394 567 L397 567 L398 566 L401 566 L402 565 L405 565 L406 564 L411 564 L412 563 L417 563 L418 562 Z M868 537 L869 536 L879 536 L880 537 L882 537 L883 538 L884 538 L885 539 L887 539 L889 541 L890 541 L891 542 L892 542 L894 544 L895 544 L897 546 L898 546 L911 559 L911 560 L913 562 L913 563 L914 564 L914 565 L915 566 L915 568 L916 569 L916 584 L915 585 L915 589 L914 590 L914 592 L913 593 L913 595 L912 596 L912 597 L911 598 L911 599 L910 600 L910 601 L908 603 L908 604 L906 606 L906 607 L902 611 L901 610 L901 609 L902 608 L902 605 L903 604 L903 586 L903 588 L902 589 L902 591 L901 592 L901 594 L900 595 L900 597 L899 598 L899 599 L898 600 L898 602 L897 603 L897 604 L896 605 L896 606 L895 607 L895 608 L892 611 L892 612 L883 621 L882 621 L881 622 L880 622 L879 623 L878 623 L877 624 L875 624 L874 623 L874 619 L875 618 L875 617 L876 616 L876 615 L877 614 L877 613 L878 612 L878 610 L879 609 L879 608 L880 607 L880 605 L881 604 L881 602 L882 601 L882 598 L883 597 L883 594 L884 593 L884 588 L885 587 L885 585 L885 586 L884 587 L884 589 L883 590 L883 591 L881 593 L881 594 L880 595 L880 596 L879 597 L879 598 L877 600 L877 601 L875 603 L875 604 L872 607 L872 608 L869 611 L869 612 L863 618 L862 618 L861 619 L860 619 L859 620 L858 620 L857 621 L852 621 L851 620 L851 619 L850 618 L850 617 L851 616 L851 614 L852 613 L852 611 L853 610 L853 609 L854 608 L854 607 L855 606 L855 604 L856 603 L856 602 L857 601 L857 599 L858 598 L858 595 L859 594 L859 591 L860 590 L860 586 L861 585 L861 581 L862 580 L862 572 L862 573 L861 574 L861 575 L860 576 L860 577 L859 578 L859 579 L858 580 L858 581 L855 584 L855 585 L852 588 L852 589 L841 600 L840 600 L838 602 L837 602 L836 603 L830 603 L828 601 L828 598 L829 597 L829 595 L831 593 L831 592 L832 591 L832 590 L834 588 L834 587 L836 585 L836 584 L838 582 L838 581 L839 580 L839 579 L841 577 L841 576 L842 575 L842 574 L843 573 L843 572 L844 571 L844 570 L845 569 L845 568 L846 567 L846 566 L847 565 L847 564 L848 563 L848 561 L849 560 L849 559 L850 558 L850 557 L851 556 L851 555 L852 554 L852 553 L853 552 L853 551 L854 550 L854 549 L856 547 L856 546 L863 539 L864 539 L866 537 Z M299 458 L300 457 L301 458 L300 459 Z M344 419 L345 418 L347 420 L347 421 L350 424 L350 425 L352 427 L352 428 L353 429 L353 430 L355 432 L355 433 L356 434 L356 435 L357 436 L357 437 L358 438 L358 439 L359 440 L359 441 L360 442 L360 443 L361 444 L361 446 L362 447 L362 448 L363 449 L363 452 L364 453 L364 455 L365 456 L365 461 L366 462 L366 475 L365 476 L365 483 L364 484 L364 489 L363 490 L363 494 L362 495 L360 493 L360 488 L359 487 L359 482 L358 481 L358 476 L357 475 L357 471 L356 470 L356 466 L355 465 L355 460 L354 459 L354 456 L353 455 L353 451 L352 450 L352 446 L351 445 L351 441 L350 440 L350 437 L349 436 L349 433 L348 432 L348 430 L347 429 L347 427 L346 426 L346 424 L345 423 L345 421 L344 420 Z M343 418 L344 417 L345 418 L344 419 Z M223 416 L224 417 L224 418 L225 419 L225 421 L226 422 L226 424 L227 425 L227 426 L228 427 L228 428 L229 429 L229 430 L230 431 L230 432 L232 434 L232 435 L234 437 L234 438 L240 444 L240 445 L275 480 L275 481 L279 485 L279 486 L282 489 L282 490 L285 493 L285 494 L287 496 L287 497 L288 498 L288 499 L289 500 L289 501 L290 502 L290 503 L291 504 L291 505 L292 506 L292 508 L293 509 L293 511 L294 512 L294 514 L295 515 L295 518 L296 519 L296 522 L296 504 L295 503 L295 500 L294 499 L294 496 L293 495 L293 493 L292 492 L292 491 L293 490 L295 492 L295 493 L296 494 L296 495 L298 497 L298 499 L299 500 L299 501 L300 502 L300 503 L302 505 L302 506 L303 507 L303 508 L304 509 L304 510 L305 511 L305 505 L306 504 L306 485 L305 484 L305 477 L304 476 L304 472 L303 471 L303 468 L302 467 L302 464 L301 463 L301 461 L300 460 L300 459 L301 458 L303 460 L303 461 L306 464 L306 465 L307 466 L307 467 L308 468 L308 469 L309 470 L309 471 L310 472 L310 473 L311 474 L311 476 L312 477 L312 479 L313 480 L313 482 L314 483 L314 486 L315 487 L315 491 L316 492 L316 499 L317 500 L317 527 L316 528 L316 535 L315 536 L315 541 L314 542 L314 545 L313 546 L313 550 L312 551 L312 553 L311 554 L311 557 L310 558 L310 559 L309 560 L309 562 L308 563 L308 565 L307 566 L307 567 L306 568 L305 567 L305 566 L304 565 L304 563 L303 562 L303 561 L302 560 L302 558 L301 557 L301 556 L300 555 L300 554 L299 553 L299 551 L298 550 L298 549 L297 548 L297 547 L296 546 L296 545 L295 544 L295 542 L294 541 L294 540 L293 539 L293 537 L292 536 L292 534 L291 533 L291 534 L292 535 L292 540 L293 541 L293 551 L294 552 L294 597 L293 598 L293 607 L294 608 L294 611 L301 618 L302 618 L305 621 L306 621 L308 623 L309 623 L311 625 L312 625 L313 626 L314 626 L317 629 L318 629 L320 631 L321 631 L323 633 L324 633 L327 636 L328 636 L330 638 L331 638 L334 641 L335 641 L346 652 L346 653 L349 656 L349 657 L350 658 L350 659 L351 660 L351 662 L352 663 L352 675 L351 676 L351 677 L350 678 L350 679 L348 681 L346 681 L342 677 L342 676 L341 675 L341 674 L340 673 L340 672 L339 671 L339 669 L337 667 L337 666 L336 665 L336 664 L334 662 L334 661 L330 657 L329 657 L326 654 L325 654 L323 652 L322 652 L320 650 L319 650 L318 649 L317 649 L316 648 L315 648 L320 653 L320 654 L324 658 L324 659 L327 662 L327 663 L329 665 L329 666 L330 667 L330 668 L332 670 L332 671 L333 672 L333 673 L334 674 L334 677 L335 678 L335 686 L334 687 L334 688 L331 691 L330 691 L329 692 L325 692 L321 688 L321 687 L320 686 L320 685 L319 684 L319 683 L318 682 L318 681 L317 680 L317 679 L315 677 L315 676 L313 674 L313 673 L311 671 L311 670 L309 668 L309 667 L300 658 L299 658 L294 653 L293 653 L297 657 L297 658 L299 660 L299 661 L301 663 L301 664 L303 666 L303 667 L305 669 L305 670 L307 672 L307 673 L308 674 L308 675 L309 676 L309 677 L310 678 L310 679 L311 680 L311 681 L312 682 L312 689 L309 692 L304 692 L298 686 L298 685 L296 683 L296 682 L288 674 L287 674 L283 670 L282 670 L279 667 L278 667 L277 666 L276 666 L274 664 L273 664 L272 663 L271 663 L270 662 L269 662 L268 661 L267 661 L265 659 L264 659 L257 652 L257 651 L256 650 L256 649 L255 648 L255 647 L256 646 L257 647 L258 647 L255 644 L255 643 L254 642 L254 641 L252 639 L252 638 L250 636 L250 635 L248 633 L248 632 L247 631 L247 630 L246 629 L246 628 L245 627 L245 626 L244 625 L244 624 L243 623 L243 622 L242 621 L242 619 L241 618 L241 616 L240 615 L240 613 L239 612 L239 609 L238 608 L238 604 L237 603 L237 592 L237 594 L236 595 L236 598 L235 599 L235 601 L234 602 L234 606 L233 607 L233 611 L232 612 L232 613 L231 614 L229 612 L229 611 L226 608 L226 607 L224 605 L224 604 L222 602 L222 601 L221 600 L221 599 L220 598 L220 597 L218 595 L218 594 L217 593 L217 592 L216 591 L216 590 L215 589 L215 588 L214 587 L214 586 L213 585 L213 584 L212 583 L212 582 L211 581 L211 579 L210 578 L210 577 L209 576 L209 574 L208 573 L208 572 L207 571 L207 569 L206 568 L206 566 L205 565 L205 562 L204 561 L204 559 L203 558 L203 555 L202 554 L202 550 L201 549 L201 545 L200 544 L200 538 L199 537 L199 504 L200 503 L200 493 L201 492 L201 485 L202 484 L202 483 L201 484 L201 486 L200 487 L200 488 L199 489 L199 491 L198 492 L198 494 L197 495 L197 497 L196 498 L196 499 L195 500 L195 502 L194 503 L194 505 L193 506 L193 507 L192 508 L192 510 L191 511 L191 512 L190 513 L190 515 L189 516 L189 517 L188 518 L188 520 L187 521 L186 520 L186 509 L187 508 L187 502 L188 501 L188 496 L189 495 L189 491 L190 490 L190 487 L191 486 L191 483 L192 482 L192 479 L193 478 L193 476 L194 475 L194 472 L195 471 L195 469 L196 468 L196 465 L197 464 L197 462 L198 461 L198 459 L199 458 L199 456 L200 455 L200 454 L201 453 L201 451 L202 450 L202 449 L203 448 L203 447 L204 446 L204 445 L205 444 L205 443 L206 442 L206 441 L207 440 L207 439 L208 438 L208 437 L210 435 L210 434 L211 433 L211 432 L213 430 L213 429 L215 427 L215 426 L217 424 L217 423 L220 420 L220 419 Z M468 369 L469 368 L483 368 L484 369 L488 369 L489 370 L492 370 L493 371 L495 371 L496 372 L498 372 L499 373 L501 373 L502 374 L504 374 L505 375 L506 375 L507 376 L508 376 L509 377 L510 377 L511 378 L512 378 L514 380 L515 380 L516 381 L517 381 L519 383 L520 383 L522 385 L523 385 L524 386 L525 386 L527 388 L528 388 L530 390 L531 390 L532 391 L533 391 L535 393 L536 393 L537 394 L538 394 L539 395 L540 395 L541 396 L542 396 L543 397 L545 397 L546 398 L549 398 L550 399 L556 399 L557 400 L562 400 L563 399 L572 399 L573 398 L579 398 L580 397 L585 397 L586 396 L591 396 L592 395 L598 395 L599 394 L625 394 L626 395 L632 395 L633 396 L637 396 L638 397 L640 397 L641 398 L643 398 L644 399 L645 399 L646 400 L647 400 L648 401 L649 401 L650 402 L651 402 L652 403 L653 403 L655 405 L656 405 L664 413 L664 414 L666 416 L666 417 L665 418 L665 419 L656 428 L655 428 L652 431 L651 431 L649 433 L648 433 L647 434 L646 434 L644 436 L643 436 L641 438 L640 438 L639 439 L638 439 L636 441 L635 441 L634 442 L633 442 L632 443 L631 443 L630 444 L629 444 L628 445 L626 445 L625 446 L624 446 L623 447 L621 447 L620 448 L617 448 L616 449 L611 449 L610 450 L604 450 L603 451 L603 453 L602 454 L602 456 L601 457 L601 458 L600 459 L600 460 L598 462 L598 463 L596 465 L596 466 L593 469 L593 470 L590 473 L590 474 L584 480 L584 481 L559 506 L558 506 L553 511 L552 511 L549 514 L548 514 L546 516 L545 516 L543 518 L542 518 L540 520 L539 520 L538 521 L537 521 L535 523 L534 522 L534 521 L535 520 L535 519 L536 518 L536 516 L537 515 L537 513 L538 512 L538 509 L539 508 L539 504 L540 503 L540 498 L539 499 L539 500 L527 512 L526 512 L523 515 L522 515 L519 518 L518 518 L516 520 L515 520 L513 522 L512 522 L511 523 L510 523 L509 524 L508 524 L507 525 L506 525 L505 526 L504 526 L503 527 L502 527 L501 528 L499 528 L498 529 L497 529 L496 530 L494 530 L493 531 L491 531 L490 532 L487 532 L486 533 L485 533 L484 532 L490 526 L490 525 L494 521 L494 520 L496 518 L496 517 L497 516 L497 515 L500 512 L499 512 L497 514 L496 514 L495 515 L494 515 L492 517 L491 517 L489 519 L488 519 L487 520 L486 520 L485 521 L484 521 L483 522 L482 522 L481 523 L480 523 L479 524 L478 524 L477 525 L476 525 L475 526 L474 526 L473 527 L472 527 L471 528 L470 528 L469 529 L468 529 L467 530 L466 530 L465 531 L464 531 L463 532 L461 532 L460 533 L459 533 L458 534 L456 534 L455 535 L454 535 L453 536 L451 536 L450 537 L448 537 L447 538 L445 538 L444 539 L442 539 L441 540 L438 540 L437 541 L434 541 L433 542 L430 542 L429 543 L425 543 L424 544 L417 544 L416 545 L388 545 L387 544 L384 544 L383 543 L380 543 L379 542 L377 542 L376 541 L375 541 L374 540 L373 540 L368 535 L368 534 L367 533 L367 529 L368 528 L368 524 L369 523 L369 519 L370 518 L370 514 L371 513 L371 510 L372 509 L372 505 L373 504 L373 502 L374 501 L374 498 L375 497 L375 495 L376 494 L376 492 L377 491 L377 489 L378 488 L378 486 L379 485 L379 484 L380 483 L380 482 L381 481 L381 480 L382 479 L382 478 L383 477 L383 476 L384 475 L384 474 L386 472 L386 471 L387 470 L387 469 L389 467 L389 466 L388 467 L381 467 L380 468 L379 468 L378 467 L378 466 L379 465 L379 464 L382 461 L382 460 L387 455 L387 454 L393 448 L394 448 L401 441 L402 441 L406 437 L407 437 L409 435 L410 435 L410 434 L409 434 L408 435 L385 435 L384 434 L384 433 L391 426 L392 426 L397 421 L398 421 L401 418 L402 418 L404 416 L405 416 L407 414 L408 414 L409 413 L410 413 L411 412 L412 412 L413 411 L414 411 L415 410 L416 410 L417 409 L418 409 L419 408 L421 408 L422 407 L423 407 L424 406 L426 406 L427 405 L429 405 L430 404 L432 404 L433 403 L435 403 L436 402 L439 402 L440 401 L443 401 L444 400 L447 400 L448 399 L451 399 L449 399 L448 398 L446 398 L445 397 L442 397 L441 396 L440 396 L439 395 L437 395 L436 394 L435 394 L434 393 L432 393 L431 392 L430 392 L429 391 L428 391 L427 390 L426 390 L425 389 L424 389 L423 388 L422 388 L420 386 L421 385 L422 385 L423 384 L424 384 L425 383 L426 383 L427 382 L428 382 L429 381 L431 381 L432 380 L433 380 L434 379 L436 379 L437 378 L438 378 L439 377 L441 377 L442 376 L444 376 L445 375 L446 375 L447 374 L449 374 L450 373 L452 373 L453 372 L455 372 L456 371 L458 371 L459 370 L463 370 L464 369 Z M569 430 L570 430 L571 431 L572 431 L574 433 L575 433 L576 434 L577 434 L578 435 L579 435 L580 436 L583 436 L584 437 L597 437 L598 436 L600 436 L601 435 L602 435 L603 434 L604 434 L606 432 L607 432 L609 430 L610 430 L608 430 L607 431 L605 431 L604 432 L598 432 L597 433 L589 433 L588 432 L580 432 L579 431 L573 431 L572 430 Z M283 342 L284 341 L299 341 L300 342 L302 342 L303 343 L304 343 L313 352 L313 353 L314 354 L314 355 L315 356 L315 357 L316 358 L316 359 L317 360 L317 361 L318 362 L318 363 L319 364 L319 366 L320 367 L320 368 L321 369 L321 371 L322 372 L322 373 L323 374 L323 376 L324 377 L324 378 L325 379 L325 381 L326 382 L326 383 L327 384 L327 386 L328 387 L328 389 L329 390 L329 391 L330 392 L330 394 L331 395 L331 397 L332 398 L332 401 L333 402 L333 404 L334 405 L334 409 L335 410 L335 413 L334 414 L334 416 L333 417 L330 417 L329 416 L327 416 L326 415 L325 415 L324 414 L323 414 L320 411 L320 410 L318 408 L318 407 L317 406 L317 404 L316 403 L316 400 L315 399 L315 396 L314 395 L314 393 L313 392 L313 391 L312 390 L312 388 L311 387 L311 385 L310 384 L310 386 L309 387 L309 390 L308 391 L308 399 L307 400 L307 403 L308 404 L308 419 L307 420 L307 422 L303 426 L302 426 L301 427 L296 427 L295 426 L294 426 L288 420 L288 419 L287 418 L287 416 L286 415 L286 413 L285 412 L285 408 L284 407 L284 404 L283 403 L283 399 L282 398 L282 395 L282 401 L281 402 L281 412 L282 413 L282 419 L283 420 L283 430 L281 432 L279 432 L278 431 L276 431 L275 430 L273 430 L271 428 L270 428 L267 425 L267 424 L265 422 L265 421 L264 420 L264 419 L263 418 L263 417 L262 416 L262 414 L261 413 L261 411 L260 410 L260 400 L260 401 L259 402 L259 415 L260 416 L260 420 L261 421 L261 425 L262 426 L262 429 L261 430 L259 430 L258 429 L256 429 L255 428 L254 428 L251 425 L251 424 L249 422 L249 421 L248 420 L248 419 L247 418 L247 416 L246 415 L246 412 L245 411 L245 408 L245 427 L244 428 L243 428 L242 427 L241 427 L237 423 L237 422 L236 421 L236 419 L235 418 L235 416 L234 415 L234 413 L233 412 L233 408 L232 407 L232 394 L233 393 L233 391 L234 390 L234 388 L235 387 L235 386 L236 385 L236 383 L237 382 L237 381 L238 380 L238 379 L240 377 L240 376 L242 374 L242 373 L244 371 L244 370 L247 367 L247 366 L258 355 L259 355 L264 350 L265 350 L267 348 L268 348 L269 347 L270 347 L272 345 L273 345 L274 344 L276 344 L277 343 L279 343 L280 342 Z M674 320 L675 319 L676 320 L675 321 Z M696 276 L699 276 L704 281 L704 283 L705 284 L705 287 L706 288 L706 299 L705 300 L705 303 L704 304 L704 305 L703 306 L703 307 L702 308 L702 309 L700 311 L700 312 L692 320 L691 320 L689 322 L688 322 L687 323 L686 323 L684 325 L683 325 L682 326 L680 326 L679 327 L678 327 L677 328 L675 328 L674 329 L672 329 L671 328 L671 327 L673 325 L674 325 L676 323 L677 323 L680 320 L681 320 L688 313 L688 312 L691 309 L691 308 L692 307 L692 306 L694 304 L694 302 L695 301 L695 293 L694 292 L694 291 L691 288 L691 287 L690 286 L690 283 L691 282 L691 281 Z M686 264 L687 263 L694 263 L695 264 L697 264 L698 265 L699 265 L702 268 L701 269 L695 269 L694 270 L693 270 L692 271 L691 271 L685 277 L685 278 L684 279 L684 280 L683 281 L683 284 L682 285 L682 298 L683 299 L683 306 L682 307 L682 310 L681 311 L681 313 L680 314 L680 315 L679 316 L679 317 L676 320 L675 319 L675 317 L676 316 L676 310 L677 309 L677 301 L676 300 L676 293 L675 292 L675 285 L674 284 L674 278 L675 277 L675 274 L676 273 L676 272 L677 271 L677 270 L681 266 L682 266 L684 264 Z M552 242 L553 241 L559 241 L560 242 L564 242 L565 243 L567 243 L568 244 L569 244 L570 245 L573 245 L574 246 L577 246 L578 245 L581 245 L582 244 L583 244 L584 243 L586 243 L587 242 L589 242 L590 241 L607 241 L608 242 L610 242 L611 243 L613 243 L614 244 L616 244 L617 245 L618 245 L619 246 L620 246 L622 248 L623 248 L630 255 L630 256 L632 258 L632 259 L633 260 L633 262 L634 263 L634 266 L635 267 L635 277 L634 278 L634 282 L633 283 L633 285 L632 286 L632 287 L630 289 L630 290 L628 292 L628 293 L620 301 L619 301 L618 302 L617 302 L616 303 L615 303 L614 304 L612 304 L611 305 L608 305 L607 306 L604 306 L604 307 L605 308 L605 310 L606 311 L606 312 L607 313 L607 315 L608 316 L608 318 L609 319 L609 325 L610 326 L610 331 L609 332 L609 339 L608 340 L608 343 L607 344 L607 346 L606 347 L606 349 L605 350 L605 351 L604 352 L604 353 L602 355 L602 356 L600 358 L600 359 L593 366 L592 366 L590 368 L589 368 L588 369 L587 369 L586 370 L585 370 L584 371 L582 371 L581 372 L578 372 L577 373 L572 373 L571 374 L553 374 L552 373 L548 373 L547 372 L545 372 L544 371 L542 371 L541 370 L540 370 L539 369 L538 369 L536 367 L535 367 L528 360 L528 359 L526 357 L526 356 L525 355 L525 354 L524 353 L524 352 L523 351 L523 348 L522 347 L522 344 L521 343 L521 332 L522 331 L522 325 L523 324 L523 322 L524 321 L524 318 L525 317 L525 316 L526 315 L526 313 L527 312 L527 311 L528 310 L528 309 L530 307 L530 306 L532 304 L532 303 L535 300 L535 299 L543 291 L542 291 L541 292 L540 292 L538 294 L537 294 L536 293 L536 292 L534 290 L534 289 L533 288 L533 287 L532 286 L532 285 L531 284 L531 282 L530 281 L530 276 L529 275 L529 271 L530 270 L530 266 L531 265 L531 263 L532 262 L532 260 L533 259 L533 258 L534 257 L534 256 L536 254 L536 253 L539 250 L539 249 L542 246 L543 246 L545 244 L546 244 L547 243 L548 243 L549 242 Z M540 328 L539 329 L536 329 L535 330 L532 330 L531 331 L530 331 L530 334 L532 334 L533 335 L555 335 L556 336 L562 336 L563 337 L566 337 L567 338 L570 338 L571 339 L573 339 L574 340 L576 340 L577 341 L579 341 L580 342 L583 342 L584 343 L587 343 L588 344 L591 344 L586 339 L585 339 L583 337 L582 337 L581 336 L580 336 L579 335 L578 335 L577 334 L576 334 L575 333 L574 333 L573 332 L571 332 L570 331 L568 331 L567 330 L564 330 L563 329 L559 329 L558 328 Z M569 297 L568 298 L566 298 L563 301 L563 304 L564 305 L566 305 L567 306 L571 306 L572 305 L573 305 L574 304 L575 304 L575 299 L573 297 Z M549 296 L548 297 L548 299 L552 303 L556 303 L556 300 L555 299 L555 298 L554 297 L553 297 L552 296 Z M610 291 L609 292 L598 292 L600 292 L601 293 L608 293 L609 292 L611 292 L612 291 Z M582 287 L586 291 L586 292 L589 295 L589 296 L591 298 L591 299 L592 300 L592 297 L591 296 L591 295 L589 293 L589 292 L584 287 Z M564 279 L562 281 L561 281 L558 284 L557 284 L556 285 L555 285 L553 287 L552 287 L554 287 L555 286 L556 286 L557 285 L558 285 L559 284 L560 284 L561 283 L562 283 L563 282 L564 282 L565 281 L566 281 L568 279 Z M597 271 L596 272 L594 272 L593 273 L592 273 L591 274 L590 274 L586 278 L586 279 L588 281 L589 281 L591 283 L592 283 L593 284 L595 284 L596 285 L607 285 L608 284 L609 284 L610 283 L611 283 L612 282 L613 282 L616 279 L610 273 L609 273 L608 272 L606 272 L605 271 Z M546 268 L545 269 L543 269 L542 270 L541 270 L538 273 L538 275 L541 278 L542 278 L543 279 L545 279 L546 280 L552 280 L553 279 L556 279 L557 278 L559 278 L560 277 L561 277 L562 276 L562 275 L558 271 L557 271 L556 270 L555 270 L554 269 L553 269 L552 268 Z M599 256 L598 257 L592 257 L591 258 L590 258 L589 259 L588 259 L584 263 L584 264 L583 265 L583 267 L586 267 L588 265 L589 265 L590 264 L592 264 L593 263 L596 263 L597 262 L604 262 L605 263 L607 263 L608 264 L609 264 L610 265 L611 265 L613 267 L614 267 L616 269 L617 269 L618 270 L620 270 L620 268 L618 266 L618 265 L612 259 L611 259 L610 258 L609 258 L608 257 L603 257 L602 256 Z M550 254 L549 255 L544 255 L543 256 L542 256 L539 259 L539 262 L542 262 L543 261 L546 261 L547 260 L555 260 L556 261 L558 261 L559 262 L560 262 L561 263 L562 263 L565 266 L566 266 L567 267 L568 267 L568 263 L567 262 L567 261 L564 258 L563 258 L562 257 L561 257 L560 256 L558 256 L557 255 L552 255 L551 254 Z M201 188 L202 187 L819 187 L820 188 L825 188 L826 189 L829 189 L830 190 L832 190 L833 191 L835 191 L836 192 L837 192 L838 193 L840 193 L841 194 L842 194 L843 195 L844 195 L846 197 L847 197 L849 199 L850 199 L851 200 L852 200 L865 213 L865 214 L868 217 L868 218 L870 220 L870 221 L871 222 L871 223 L872 224 L872 225 L873 226 L873 227 L874 228 L874 229 L875 230 L875 232 L876 233 L876 235 L877 236 L877 238 L878 239 L878 243 L879 244 L879 522 L880 523 L879 524 L877 524 L876 523 L875 523 L874 522 L872 522 L871 521 L869 521 L868 520 L866 520 L865 519 L863 519 L862 518 L860 518 L859 517 L856 517 L855 516 L850 516 L849 515 L844 515 L843 514 L838 514 L837 513 L832 513 L831 512 L826 512 L825 511 L821 511 L820 510 L816 510 L815 509 L810 509 L809 508 L804 508 L803 507 L798 507 L797 506 L792 506 L791 505 L785 505 L783 503 L783 502 L781 500 L781 499 L780 498 L780 497 L779 496 L779 495 L777 493 L777 492 L776 491 L776 490 L775 489 L775 488 L774 487 L774 486 L772 484 L772 483 L771 482 L771 481 L769 479 L769 478 L768 477 L768 476 L767 475 L767 474 L766 473 L766 472 L764 470 L764 469 L763 468 L763 467 L762 466 L762 465 L761 464 L761 463 L760 462 L760 461 L759 460 L759 459 L758 458 L758 457 L757 456 L757 454 L756 453 L756 452 L755 451 L755 450 L754 449 L754 448 L753 447 L753 446 L752 445 L752 444 L751 443 L751 441 L750 440 L750 439 L749 438 L749 436 L748 435 L748 432 L747 431 L747 428 L746 427 L746 423 L745 422 L745 416 L744 415 L744 408 L743 407 L743 403 L742 402 L742 399 L741 398 L741 395 L740 394 L740 392 L739 391 L739 389 L738 388 L738 387 L737 386 L737 384 L735 382 L735 381 L734 380 L734 379 L732 377 L732 376 L730 374 L730 373 L721 364 L720 364 L717 361 L716 361 L714 359 L713 359 L712 358 L711 358 L710 357 L708 357 L707 356 L706 356 L705 355 L703 355 L702 354 L699 354 L698 353 L694 353 L693 352 L683 352 L682 351 L682 335 L683 334 L685 334 L686 333 L687 333 L688 332 L689 332 L690 331 L691 331 L693 329 L694 329 L696 327 L697 327 L706 318 L706 317 L709 314 L709 313 L710 312 L710 311 L711 310 L711 309 L712 308 L712 307 L713 306 L713 304 L714 303 L714 301 L715 300 L715 296 L716 295 L716 280 L715 279 L715 276 L714 275 L714 273 L713 272 L713 271 L712 270 L712 269 L711 268 L711 267 L703 259 L702 259 L700 257 L698 257 L697 256 L696 256 L695 255 L684 255 L683 256 L681 256 L680 257 L679 257 L678 258 L677 258 L675 256 L675 255 L665 245 L664 245 L659 240 L658 240 L654 236 L653 236 L650 233 L649 233 L648 232 L647 232 L645 230 L644 230 L643 229 L642 229 L641 228 L640 228 L639 227 L638 227 L637 226 L635 226 L634 225 L632 225 L631 224 L629 224 L628 223 L626 223 L625 222 L622 222 L621 221 L616 221 L615 220 L600 220 L599 219 L584 219 L583 220 L573 220 L572 221 L568 221 L567 222 L563 222 L562 223 L560 223 L559 224 L557 224 L556 225 L554 225 L553 226 L552 226 L551 227 L550 227 L549 228 L548 228 L546 230 L545 230 L544 231 L543 231 L540 234 L539 234 L533 240 L533 241 L531 243 L531 244 L530 245 L530 246 L522 254 L522 255 L521 256 L521 257 L520 258 L520 259 L519 260 L519 261 L518 262 L518 265 L517 266 L517 280 L518 281 L518 284 L519 285 L519 286 L520 287 L520 288 L521 289 L521 290 L522 291 L522 292 L523 293 L523 294 L525 296 L524 297 L524 298 L521 301 L521 302 L520 303 L520 304 L519 305 L519 306 L518 307 L518 308 L517 309 L517 311 L516 312 L516 313 L515 314 L515 317 L514 318 L514 321 L513 322 L513 329 L512 330 L512 333 L511 334 L510 333 L509 333 L508 332 L507 332 L506 331 L504 331 L503 330 L501 330 L500 329 L497 329 L496 328 L492 328 L491 327 L485 327 L484 326 L468 326 L467 327 L460 327 L459 328 L455 328 L454 329 L451 329 L450 330 L447 330 L446 331 L444 331 L443 332 L441 332 L440 333 L438 333 L437 334 L435 334 L434 335 L433 335 L432 336 L430 336 L429 337 L428 337 L427 338 L425 338 L424 339 L422 339 L421 340 L417 340 L416 341 L399 341 L398 340 L386 340 L385 339 L376 339 L375 338 L368 338 L367 337 L360 337 L359 336 L353 336 L352 335 L347 335 L346 334 L341 334 L340 333 L335 333 L334 332 L330 332 L329 331 L327 331 L326 330 L324 330 L323 329 L322 329 L321 328 L318 328 L317 327 L312 327 L311 326 L293 326 L292 327 L287 327 L286 328 L282 328 L281 329 L279 329 L278 330 L276 330 L275 331 L273 331 L272 332 L271 332 L270 333 L269 333 L268 334 L267 334 L265 336 L264 336 L263 337 L262 337 L260 339 L259 339 L255 343 L254 343 L241 356 L241 357 L237 361 L237 362 L235 364 L235 365 L233 367 L233 368 L231 370 L231 371 L230 372 L230 373 L229 374 L229 375 L228 376 L228 377 L227 378 L227 379 L226 380 L226 382 L225 383 L225 384 L224 385 L224 387 L223 388 L223 391 L222 392 L222 395 L217 400 L217 401 L214 404 L214 405 L211 408 L211 409 L208 412 L208 413 L206 415 L206 416 L204 418 L204 419 L203 420 L203 421 L202 422 L202 423 L200 425 L200 426 L199 427 L199 428 L198 429 L198 430 L197 431 L197 432 L196 433 L196 434 L195 435 L195 436 L194 437 L194 438 L193 439 L193 440 L192 441 L192 443 L191 444 L191 445 L190 446 L190 447 L189 448 L189 450 L188 451 L188 452 L187 453 L187 455 L186 456 L186 457 L185 458 L185 460 L184 461 L184 463 L183 464 L183 466 L182 467 L182 469 L181 470 L181 472 L180 473 L180 475 L179 476 L179 479 L178 480 L178 482 L177 483 L177 486 L176 487 L176 490 L175 491 L175 494 L174 495 L174 499 L173 500 L173 504 L172 505 L172 511 L171 512 L171 519 L170 520 L170 530 L169 531 L169 553 L170 554 L170 561 L171 562 L171 567 L172 568 L172 571 L173 572 L173 575 L174 576 L174 579 L175 580 L175 582 L176 583 L176 585 L177 586 L177 587 L178 588 L178 590 L179 591 L179 592 L180 593 L180 595 L181 596 L181 597 L183 599 L183 600 L184 601 L184 602 L186 604 L186 605 L188 607 L188 608 L191 611 L191 612 L201 622 L202 622 L205 625 L206 625 L208 627 L209 627 L211 629 L212 629 L213 630 L214 630 L215 631 L216 631 L217 632 L218 632 L220 634 L218 636 L217 636 L216 637 L215 637 L213 639 L212 639 L210 641 L209 641 L206 644 L205 644 L196 653 L196 654 L194 656 L194 657 L193 658 L193 659 L192 660 L192 661 L191 662 L191 664 L190 665 L190 680 L191 681 L191 683 L192 684 L192 685 L193 686 L193 687 L197 691 L198 691 L200 693 L203 693 L204 694 L212 694 L213 695 L215 695 L216 696 L231 696 L232 697 L232 698 L233 699 L234 699 L235 700 L237 700 L238 701 L256 701 L257 700 L261 700 L262 699 L264 699 L265 698 L268 698 L269 697 L271 697 L272 696 L274 696 L275 695 L277 695 L278 694 L279 694 L280 693 L281 693 L282 692 L283 692 L284 691 L287 691 L296 700 L297 700 L298 701 L299 701 L300 702 L302 702 L303 703 L309 703 L310 702 L312 702 L313 701 L314 701 L315 700 L316 700 L317 699 L318 700 L319 700 L320 701 L322 701 L323 702 L331 702 L332 701 L334 701 L335 700 L336 700 L338 698 L339 698 L344 693 L347 693 L348 692 L350 692 L351 691 L352 691 L353 690 L354 690 L359 685 L359 684 L360 683 L360 682 L361 681 L361 679 L362 678 L362 673 L363 672 L371 672 L372 671 L379 671 L380 670 L386 670 L387 669 L391 669 L392 668 L396 668 L397 667 L401 667 L402 666 L405 666 L406 665 L408 665 L409 664 L412 664 L413 663 L415 663 L416 662 L418 662 L419 661 L421 661 L422 660 L424 660 L425 659 L427 659 L428 658 L430 658 L431 657 L432 657 L433 656 L435 656 L436 655 L437 655 L438 654 L439 654 L440 653 L441 653 L442 652 L443 652 L444 653 L442 655 L441 655 L438 658 L437 658 L434 661 L433 661 L431 663 L430 663 L428 665 L427 665 L425 667 L424 667 L423 668 L422 668 L421 669 L420 669 L419 670 L420 670 L421 669 L425 669 L426 668 L429 668 L430 667 L433 667 L434 666 L437 666 L438 665 L441 665 L442 664 L445 664 L446 663 L448 663 L449 662 L452 662 L453 661 L455 661 L456 660 L458 660 L459 659 L461 659 L462 658 L463 658 L464 657 L466 657 L467 656 L469 656 L470 655 L471 655 L472 654 L474 654 L475 653 L476 653 L477 652 L478 652 L479 651 L480 651 L481 650 L482 650 L483 649 L484 649 L485 648 L486 648 L487 647 L488 647 L489 646 L490 646 L491 645 L492 645 L494 643 L495 643 L496 642 L497 642 L499 640 L500 640 L502 638 L503 638 L506 635 L507 635 L510 632 L511 632 L515 628 L516 629 L516 630 L514 632 L514 633 L512 635 L512 636 L509 639 L509 640 L505 644 L505 645 L494 656 L493 656 L490 659 L489 659 L486 662 L485 662 L483 664 L482 664 L481 665 L480 665 L479 666 L480 666 L481 665 L482 665 L483 664 L485 664 L486 663 L488 663 L489 662 L490 662 L491 661 L493 661 L494 660 L495 660 L496 659 L498 659 L499 658 L500 658 L501 657 L503 657 L505 655 L507 655 L508 654 L509 654 L510 653 L511 653 L512 652 L513 652 L514 651 L515 651 L516 650 L517 650 L518 649 L519 649 L521 647 L522 647 L523 646 L524 646 L525 645 L526 645 L527 644 L528 644 L530 642 L531 642 L532 641 L533 641 L534 640 L535 640 L537 638 L538 638 L539 637 L540 637 L542 635 L543 635 L545 633 L546 633 L548 631 L549 631 L550 630 L551 630 L553 628 L554 628 L556 626 L557 626 L559 624 L560 624 L562 622 L563 622 L566 619 L567 619 L569 617 L570 617 L572 615 L573 615 L575 613 L576 613 L578 611 L579 611 L581 609 L582 609 L584 607 L585 607 L586 606 L587 606 L589 604 L590 604 L592 602 L593 602 L595 600 L596 600 L598 598 L599 598 L600 597 L601 597 L603 595 L604 595 L606 593 L607 593 L608 592 L609 592 L611 590 L612 590 L614 588 L615 588 L616 587 L617 587 L619 585 L620 585 L622 583 L623 583 L624 582 L625 582 L627 580 L628 580 L629 579 L630 579 L632 577 L633 577 L634 576 L635 576 L637 574 L638 574 L639 573 L640 573 L641 572 L642 572 L643 571 L644 571 L646 569 L647 569 L648 568 L649 568 L650 567 L651 567 L652 566 L653 566 L655 564 L656 564 L657 563 L658 563 L660 561 L661 561 L662 560 L663 560 L665 558 L666 558 L668 556 L669 556 L671 554 L672 554 L670 554 L669 555 L668 555 L667 556 L665 556 L664 557 L662 557 L661 558 L660 558 L659 559 L657 559 L656 560 L654 560 L653 561 L652 561 L651 562 L650 562 L649 563 L647 563 L646 564 L645 564 L644 565 L642 565 L641 566 L640 566 L639 567 L638 567 L637 568 L636 568 L635 569 L634 569 L633 570 L632 570 L631 571 L630 571 L629 572 L628 572 L627 573 L626 573 L625 574 L624 574 L623 575 L622 575 L621 576 L620 576 L619 577 L618 577 L617 578 L616 578 L615 579 L614 579 L613 580 L612 580 L610 582 L609 582 L608 583 L607 583 L606 584 L605 584 L603 586 L602 586 L601 587 L600 587 L598 589 L597 589 L595 591 L594 591 L592 593 L591 593 L588 596 L587 596 L584 599 L583 599 L582 598 L587 593 L588 593 L594 587 L595 587 L604 578 L605 578 L637 546 L637 545 L664 518 L664 517 L665 516 L666 516 L666 515 L677 504 L678 504 L678 503 L677 502 L677 501 L676 500 L676 499 L675 498 L675 497 L674 496 L674 495 L673 494 L673 493 L672 492 L672 491 L671 490 L671 489 L670 488 L670 487 L669 486 L669 484 L668 483 L668 482 L667 481 L667 480 L666 479 L666 477 L665 476 L665 475 L664 474 L664 472 L663 471 L663 470 L662 469 L662 468 L661 467 L661 465 L662 464 L663 465 L663 466 L664 467 L664 468 L665 469 L665 470 L666 471 L666 472 L667 473 L667 474 L668 475 L668 476 L669 477 L669 478 L670 479 L670 480 L671 481 L671 482 L672 483 L672 484 L673 485 L673 486 L675 488 L675 489 L676 490 L676 491 L677 492 L677 493 L678 494 L678 495 L679 496 L679 497 L680 498 L680 499 L682 501 L682 502 L683 503 L683 504 L684 505 L684 506 L685 507 L685 508 L686 509 L686 510 L687 511 L687 512 L688 513 L688 514 L690 516 L690 517 L691 518 L691 519 L692 520 L692 521 L693 522 L693 523 L694 524 L694 525 L695 526 L695 527 L696 528 L696 529 L697 530 L697 531 L698 532 L698 533 L699 534 L699 535 L700 536 L700 537 L701 538 L701 539 L702 540 L702 541 L703 542 L703 543 L704 544 L704 545 L705 546 L705 547 L706 548 L706 549 L707 550 L707 551 L709 553 L709 554 L710 555 L710 556 L711 557 L711 558 L713 560 L713 561 L714 562 L714 563 L715 564 L715 565 L714 566 L713 566 L712 567 L711 567 L710 568 L709 568 L708 569 L707 569 L706 570 L705 570 L704 571 L702 571 L701 572 L700 572 L699 573 L698 573 L697 574 L696 574 L695 575 L694 575 L693 576 L692 576 L691 577 L690 577 L689 578 L688 578 L687 579 L686 579 L685 580 L684 580 L683 581 L682 581 L681 582 L680 582 L679 583 L678 583 L676 585 L675 585 L674 586 L673 586 L672 587 L671 587 L670 588 L669 588 L667 590 L666 590 L665 591 L664 591 L663 592 L662 592 L660 594 L659 594 L658 595 L657 595 L655 597 L654 597 L653 598 L652 598 L650 600 L649 600 L648 601 L647 601 L645 603 L644 603 L642 605 L641 605 L639 607 L638 607 L637 608 L636 608 L634 610 L633 610 L631 612 L630 612 L628 614 L627 614 L625 616 L624 616 L623 617 L622 617 L620 619 L619 619 L617 621 L616 621 L614 623 L613 623 L611 625 L610 625 L608 627 L607 627 L604 630 L603 630 L601 632 L600 632 L598 634 L597 634 L594 637 L593 637 L591 639 L590 639 L587 642 L586 642 L583 645 L582 645 L579 648 L578 648 L579 648 L580 647 L581 647 L583 645 L584 645 L585 644 L586 644 L587 643 L588 643 L589 642 L590 642 L591 641 L592 641 L594 639 L595 639 L596 638 L597 638 L598 637 L599 637 L600 636 L601 636 L602 635 L603 635 L605 633 L606 633 L607 632 L608 632 L609 631 L610 631 L612 629 L613 629 L614 628 L615 628 L616 627 L617 627 L619 625 L620 625 L621 624 L622 624 L623 623 L624 623 L626 621 L627 621 L628 620 L629 620 L630 619 L631 619 L633 617 L634 617 L635 616 L636 616 L638 614 L639 614 L640 613 L641 613 L643 611 L644 611 L645 610 L646 610 L648 608 L649 608 L650 607 L651 607 L652 606 L653 606 L655 604 L656 604 L657 603 L658 603 L660 601 L661 601 L662 600 L663 600 L664 599 L665 599 L666 598 L667 598 L668 597 L669 597 L670 596 L671 596 L673 594 L674 594 L675 593 L676 593 L677 592 L678 592 L679 591 L680 591 L681 590 L682 590 L683 589 L684 589 L685 588 L686 588 L687 587 L688 587 L689 586 L690 586 L692 584 L693 584 L694 583 L695 583 L696 582 L697 582 L698 581 L699 581 L700 580 L701 580 L702 579 L703 579 L704 578 L705 578 L706 577 L707 577 L708 576 L709 576 L710 575 L711 575 L712 574 L713 574 L714 573 L715 573 L716 572 L717 572 L718 571 L719 571 L723 575 L724 575 L725 576 L725 577 L724 578 L723 578 L721 580 L720 580 L719 581 L718 581 L716 583 L715 583 L714 584 L713 584 L711 586 L710 586 L709 587 L708 587 L707 588 L706 588 L705 589 L704 589 L702 591 L701 591 L700 592 L699 592 L698 593 L697 593 L695 595 L694 595 L693 596 L692 596 L691 597 L690 597 L689 598 L688 598 L686 600 L685 600 L684 601 L683 601 L682 602 L681 602 L679 604 L678 604 L677 605 L676 605 L674 607 L673 607 L671 609 L670 609 L669 610 L668 610 L666 612 L665 612 L663 614 L662 614 L660 616 L659 616 L657 618 L656 618 L654 620 L653 620 L651 622 L650 622 L648 624 L647 624 L645 626 L644 626 L642 628 L641 628 L639 630 L638 630 L636 632 L635 632 L633 634 L632 634 L629 637 L628 637 L625 640 L624 640 L623 641 L624 640 L625 640 L626 639 L627 639 L628 638 L629 638 L630 637 L631 637 L632 636 L633 636 L634 635 L635 635 L636 634 L637 634 L638 633 L639 633 L640 632 L641 632 L642 631 L643 631 L644 630 L645 630 L646 629 L647 629 L648 628 L649 628 L650 627 L651 627 L653 625 L654 625 L655 624 L656 624 L657 623 L658 623 L659 622 L660 622 L661 621 L662 621 L664 619 L665 619 L666 618 L667 618 L668 617 L669 617 L670 616 L671 616 L673 614 L674 614 L675 613 L676 613 L677 612 L678 612 L679 611 L680 611 L682 609 L683 609 L684 608 L685 608 L686 607 L687 607 L688 606 L689 606 L691 604 L692 604 L693 603 L694 603 L696 601 L697 601 L698 600 L699 600 L701 598 L702 598 L703 597 L704 597 L705 596 L706 596 L708 594 L709 594 L710 593 L711 593 L712 592 L713 592 L715 590 L716 590 L717 589 L718 589 L719 588 L720 588 L721 587 L722 587 L724 585 L725 585 L726 584 L727 584 L729 582 L730 582 L731 581 L732 581 L733 580 L734 580 L735 581 L740 581 L741 582 L745 582 L746 583 L746 584 L745 585 L744 585 L743 586 L742 586 L740 588 L739 588 L738 589 L737 589 L735 591 L734 591 L733 592 L732 592 L730 594 L729 594 L728 595 L727 595 L725 597 L724 597 L723 598 L722 598 L720 600 L719 600 L718 601 L717 601 L716 602 L715 602 L713 604 L712 604 L711 605 L710 605 L708 607 L707 607 L706 608 L705 608 L704 609 L703 609 L702 610 L701 610 L699 612 L698 612 L696 614 L695 614 L694 615 L693 615 L691 617 L690 617 L688 619 L687 619 L685 621 L684 621 L681 624 L680 624 L676 628 L675 628 L671 632 L672 631 L673 631 L675 629 L676 629 L677 628 L678 628 L679 627 L680 627 L681 626 L682 626 L683 625 L684 625 L685 624 L686 624 L687 623 L688 623 L689 622 L690 622 L691 621 L692 621 L693 620 L694 620 L696 618 L697 618 L698 617 L699 617 L700 616 L701 616 L702 615 L703 615 L704 614 L705 614 L706 613 L707 613 L708 612 L709 612 L710 611 L711 611 L713 609 L714 609 L715 608 L716 608 L717 607 L718 607 L719 606 L720 606 L721 605 L722 605 L723 604 L724 604 L725 603 L726 603 L728 601 L729 601 L730 600 L731 600 L732 599 L733 599 L734 598 L735 598 L736 597 L737 597 L739 595 L740 595 L741 594 L742 594 L744 592 L745 592 L746 591 L747 591 L749 589 L750 589 L751 588 L752 588 L753 587 L754 587 L756 585 L764 585 L765 586 L771 586 L772 587 L770 589 L769 589 L768 590 L767 590 L765 592 L764 592 L763 593 L762 593 L761 594 L760 594 L758 596 L757 596 L756 597 L755 597 L753 599 L752 599 L751 600 L750 600 L748 602 L747 602 L746 603 L745 603 L744 604 L743 604 L741 606 L740 606 L739 607 L738 607 L736 609 L735 609 L734 610 L733 610 L731 612 L730 612 L728 614 L727 614 L725 616 L724 616 L722 618 L721 618 L718 621 L717 621 L714 624 L713 624 L710 627 L709 627 L710 627 L711 626 L712 626 L714 624 L715 624 L716 623 L717 623 L718 622 L719 622 L720 621 L721 621 L722 620 L723 620 L724 619 L725 619 L726 618 L727 618 L728 617 L729 617 L730 616 L731 616 L732 615 L733 615 L734 614 L735 614 L736 613 L737 613 L738 612 L739 612 L740 611 L741 611 L742 610 L743 610 L744 609 L745 609 L746 608 L747 608 L749 606 L750 606 L751 605 L752 605 L753 604 L754 604 L755 603 L756 603 L757 602 L758 602 L759 601 L760 601 L762 599 L763 599 L764 598 L765 598 L766 597 L767 597 L768 596 L769 596 L770 595 L771 595 L772 594 L773 594 L774 593 L775 593 L776 592 L777 592 L778 591 L779 591 L780 590 L781 590 L783 588 L784 589 L789 589 L790 590 L796 590 L798 592 L797 593 L796 593 L795 594 L794 594 L793 595 L792 595 L791 596 L790 596 L789 597 L788 597 L786 599 L785 599 L784 600 L783 600 L782 601 L781 601 L780 602 L779 602 L778 603 L777 603 L775 605 L774 605 L773 606 L772 606 L770 608 L769 608 L768 609 L767 609 L765 611 L764 611 L762 613 L761 613 L759 615 L758 615 L757 616 L756 616 L754 618 L753 618 L754 618 L755 617 L756 617 L757 616 L758 616 L759 615 L760 615 L761 614 L762 614 L763 613 L765 613 L766 612 L767 612 L768 611 L769 611 L770 610 L772 610 L773 609 L774 609 L775 608 L776 608 L777 607 L779 607 L780 606 L781 606 L782 605 L783 605 L784 604 L786 604 L787 603 L788 603 L789 602 L790 602 L791 601 L792 601 L793 600 L795 600 L796 599 L797 599 L798 598 L799 598 L800 597 L802 597 L803 596 L804 596 L805 595 L806 595 L807 594 L808 594 L809 593 L812 593 L813 594 L818 594 L819 595 L819 599 L818 600 L819 601 L819 605 L820 606 L820 607 L824 611 L825 611 L826 612 L828 612 L829 613 L836 613 L837 612 L839 612 L840 611 L841 612 L841 623 L842 624 L842 625 L846 629 L847 629 L848 630 L850 630 L851 631 L858 631 L859 630 L861 630 L862 629 L864 629 L865 628 L869 632 L870 632 L871 633 L874 633 L875 634 L876 634 L877 633 L878 633 L880 635 L880 641 L879 642 L879 652 L878 653 L878 657 L877 658 L877 661 L876 662 L876 664 L875 665 L875 666 L874 667 L874 668 L873 669 L873 671 L871 673 L871 674 L870 675 L870 676 L868 678 L868 679 L865 682 L865 683 L856 692 L855 692 L852 695 L851 695 L849 697 L848 697 L847 698 L846 698 L845 699 L844 699 L843 700 L842 700 L841 701 L840 701 L839 702 L837 702 L836 703 L834 703 L833 704 L831 704 L830 705 L827 705 L826 706 L820 706 L819 707 L202 707 L201 706 L196 706 L195 705 L191 705 L190 704 L188 704 L187 703 L185 703 L184 702 L183 702 L182 701 L180 701 L179 700 L178 700 L177 699 L176 699 L174 697 L173 697 L171 695 L170 695 L167 692 L166 692 L157 683 L157 682 L154 679 L154 678 L152 676 L152 675 L151 674 L151 673 L149 671 L149 670 L148 669 L148 667 L147 666 L147 665 L146 664 L146 662 L145 661 L145 659 L144 658 L144 655 L143 654 L143 650 L142 649 L142 245 L143 244 L143 239 L144 238 L144 236 L145 235 L145 232 L146 231 L146 230 L147 229 L147 228 L148 227 L148 225 L149 224 L149 223 L150 222 L150 221 L152 219 L152 218 L154 216 L154 215 L157 212 L157 211 L166 202 L167 202 L170 199 L171 199 L173 197 L174 197 L175 196 L176 196 L178 194 L179 194 L180 193 L182 193 L183 192 L184 192 L185 191 L187 191 L188 190 L190 190 L191 189 L194 189 L195 188 Z M695 561 L694 562 L692 562 L691 563 L690 563 L689 564 L688 564 L687 565 L685 565 L684 566 L682 566 L681 567 L680 567 L679 568 L677 568 L676 569 L675 569 L674 570 L672 570 L671 571 L670 571 L669 572 L668 572 L667 573 L666 573 L665 574 L664 574 L663 575 L661 575 L660 576 L659 576 L658 577 L657 577 L656 578 L655 578 L654 579 L653 579 L652 580 L651 580 L650 581 L649 581 L648 582 L647 582 L646 583 L645 583 L644 584 L643 584 L642 585 L641 585 L640 586 L639 586 L638 587 L637 587 L635 589 L634 589 L633 590 L632 590 L631 591 L630 591 L628 593 L627 593 L626 594 L625 594 L623 596 L622 596 L621 597 L620 597 L618 599 L617 599 L615 601 L614 601 L613 602 L612 602 L610 604 L609 604 L607 606 L606 606 L604 608 L603 608 L602 609 L601 609 L599 611 L598 611 L596 613 L595 613 L593 615 L592 615 L590 617 L589 617 L587 619 L586 619 L583 622 L582 622 L580 624 L579 624 L577 626 L576 626 L573 629 L572 629 L570 631 L569 631 L567 633 L566 633 L564 635 L563 635 L560 638 L559 638 L556 641 L555 641 L553 643 L552 643 L549 646 L548 646 L545 649 L544 649 L541 652 L540 652 L538 654 L539 653 L540 653 L541 652 L542 652 L544 650 L545 650 L546 649 L547 649 L548 648 L549 648 L550 647 L551 647 L552 646 L553 646 L555 644 L556 644 L557 643 L558 643 L559 642 L560 642 L562 640 L563 640 L564 639 L565 639 L566 638 L567 638 L568 637 L569 637 L571 635 L572 635 L574 633 L575 633 L576 632 L577 632 L579 630 L580 630 L581 629 L582 629 L584 627 L585 627 L586 626 L587 626 L589 624 L590 624 L592 622 L593 622 L594 621 L595 621 L597 619 L598 619 L600 617 L601 617 L602 616 L603 616 L605 614 L606 614 L608 612 L609 612 L610 611 L611 611 L613 609 L614 609 L616 607 L617 607 L618 606 L619 606 L621 604 L622 604 L624 602 L625 602 L626 601 L627 601 L629 599 L630 599 L632 597 L633 597 L634 596 L635 596 L636 595 L637 595 L639 593 L640 593 L642 591 L643 591 L644 590 L645 590 L646 589 L647 589 L648 588 L649 588 L651 586 L652 586 L653 585 L654 585 L656 583 L657 583 L658 582 L659 582 L660 581 L661 581 L662 580 L663 580 L664 579 L665 579 L667 577 L668 577 L669 576 L670 576 L672 574 L673 574 L674 573 L675 573 L676 572 L677 572 L678 571 L679 571 L681 569 L682 569 L683 568 L684 568 L685 567 L686 567 L688 565 L689 565 L690 564 L691 564 L692 563 L693 563 L695 561 L696 561 Z" /></g></svg>