<?xml version="1.0" standalone="no"?>
<!DOCTYPE svg PUBLIC "-//W3C//DTD SVG 20010904//EN"
 "http://www.w3.org/TR/2001/REC-SVG-20010904/DTD/svg10.dtd">
<svg version="1.0" xmlns="http://www.w3.org/2000/svg"
 width="300.000000pt" height="302.000000pt" viewBox="0 0 300.000000 302.000000"
 preserveAspectRatio="xMidYMid meet">
<metadata>
Created by potrace 1.10, written by Peter Selinger 2001-2011
</metadata>
<g transform="translate(0.000000,302.000000) scale(0.100000,-0.100000)"
fill="#000000" stroke="none">
<path d="M1426 2879 l-57 -71 12 -50 c13 -48 12 -51 -10 -69 -42 -34 -111 -16
-111 28 0 11 7 26 15 33 22 19 11 26 -98 63 -74 26 -94 30 -87 18 18 -35 57
-159 69 -221 7 -36 15 -76 19 -90 3 -14 6 -29 6 -34 1 -15 -248 -83 -407 -111
-105 -19 -100 -19 -81 10 9 13 20 40 24 60 8 34 7 35 -21 35 -26 0 -29 4 -29
30 0 40 26 90 47 90 9 0 25 -7 35 -17 17 -15 18 -14 18 20 0 43 -28 67 -78 67
-45 0 -97 -51 -113 -112 -12 -44 -13 -45 -40 -34 -36 13 -42 6 -43 -49 -1 -34
-4 -44 -15 -40 -7 3 0 -10 15 -29 37 -45 44 -44 33 2 -11 49 -11 102 0 102 18
0 41 -45 41 -80 0 -31 -37 -141 -54 -157 -3 -3 -6 12 -6 34 0 58 -18 103 -41
103 -18 0 -18 -2 -4 -23 20 -31 29 -103 21 -171 l-7 -55 -39 39 c-69 69 -163
75 -227 16 -25 -23 -36 -42 -40 -73 -5 -37 -2 -46 24 -72 31 -30 59 -33 91 -8
18 15 14 51 -8 65 -25 15 -16 42 14 42 37 0 74 -51 122 -166 25 -60 48 -115
51 -121 3 -7 -22 5 -56 28 -34 22 -61 46 -61 52 0 7 -5 4 -11 -6 -5 -9 -7 -22
-4 -27 3 -6 1 -10 -4 -10 -17 0 -13 -42 8 -83 16 -31 16 -37 4 -37 -26 0 -83
-65 -83 -95 0 -30 16 -65 39 -82 26 -20 36 -15 46 20 9 28 15 32 49 35 52 4
88 -12 135 -63 39 -42 67 -85 56 -85 -3 0 -18 6 -33 14 -41 21 -113 29 -147
16 -75 -28 -111 -100 -81 -158 30 -59 99 -71 141 -26 32 34 31 44 0 44 -33 0
-45 28 -19 47 12 9 32 12 53 9 44 -7 57 -20 37 -37 -13 -12 -6 -22 55 -80 38
-37 69 -71 69 -76 0 -5 -29 -7 -65 -5 -63 4 -66 3 -100 -31 -25 -25 -35 -44
-35 -66 0 -17 5 -31 10 -31 6 0 10 7 10 15 0 34 30 74 65 85 61 20 127 -4 201
-72 42 -39 41 -36 -32 71 -48 71 -90 121 -115 138 -60 39 -50 59 14 27 l32
-16 -35 36 c-70 74 -159 94 -195 43 -22 -31 -18 -56 10 -69 32 -14 32 -24 -1
-32 -56 -15 -98 46 -73 105 22 54 111 75 183 45 41 -17 99 -75 125 -124 25
-47 26 -39 2 29 -43 125 -117 231 -185 263 -68 32 -156 13 -156 -33 0 -28 -25
-2 -28 28 -7 74 85 107 167 60 l36 -20 -29 23 c-80 63 -106 91 -112 124 -3 19
-4 37 -2 40 3 2 31 -15 63 -38 43 -32 75 -70 126 -148 38 -58 69 -99 69 -92 0
8 -38 93 -84 190 -46 98 -94 203 -106 236 -13 32 -35 72 -49 89 -14 17 -19 28
-11 23 8 -4 6 0 -4 8 -28 22 -82 20 -106 -4 -30 -30 -24 -59 12 -73 20 -7 23
-22 7 -32 -20 -13 -57 5 -69 34 -33 80 89 153 178 107 60 -31 92 -86 117 -204
14 -68 33 -127 34 -105 1 6 -6 42 -15 80 -25 107 -15 208 31 318 26 61 41 116
47 170 5 44 16 96 26 115 29 61 107 78 132 29 11 -20 11 -20 -14 -4 -24 16
-28 16 -51 1 -26 -17 -45 -70 -45 -129 0 -21 -7 -54 -15 -75 -8 -20 -9 -28 -2
-18 21 35 57 67 67 61 16 -10 0 -38 -55 -95 -82 -86 -98 -125 -103 -254 -3
-78 -1 -107 7 -102 6 4 11 22 11 41 0 33 40 95 62 95 17 0 1 -72 -26 -121 -29
-52 -33 -84 -23 -161 10 -66 27 -87 27 -33 0 25 8 43 25 61 32 32 33 51 0 30
-13 -9 -27 -16 -30 -16 -14 0 -2 53 25 103 21 41 30 70 30 104 0 70 -9 78 -54
46 l-39 -26 7 33 c9 50 50 131 81 163 15 16 28 27 30 25 2 -2 5 -172 8 -378 4
-390 2 -406 -33 -248 -11 48 -10 61 4 100 10 25 16 58 14 74 -3 25 -6 21 -26
-34 -30 -82 -27 -121 27 -332 71 -275 146 -406 313 -545 90 -76 118 -120 100
-160 -12 -25 -41 -32 -76 -19 -22 9 -20 31 4 37 26 7 26 46 0 80 -29 36 -118
93 -168 107 -45 12 -112 -1 -112 -21 0 -6 -4 -7 -10 -4 -15 9 -12 51 5 65 10
8 33 11 67 8 l51 -5 -24 18 c-13 10 -61 34 -107 52 -86 34 -103 52 -53 52 16
0 27 3 24 7 -6 12 -88 10 -120 -3 -15 -6 -40 -23 -55 -38 -25 -26 -26 -30 -12
-47 9 -11 14 -13 12 -5 -5 18 38 61 61 61 10 0 50 -15 89 -33 l71 -32 -25 -24
c-29 -28 -30 -50 -3 -85 l21 -26 25 20 c14 11 39 20 55 20 41 0 112 -34 158
-77 44 -39 55 -79 20 -70 -16 4 -20 0 -20 -19 0 -36 42 -74 83 -74 67 0 99 59
64 118 -11 18 -16 36 -12 40 4 4 10 1 12 -5 3 -7 11 -13 19 -13 8 0 14 -4 14
-10 0 -9 103 -90 114 -90 3 0 25 -13 49 -30 24 -16 77 -45 118 -65 l73 -35
-74 0 c-164 1 -543 54 -576 81 -6 5 -13 6 -17 3 -7 -7 -8 85 -1 109 3 9 10 15
15 12 17 -11 9 12 -10 29 -11 10 -54 22 -107 31 -137 20 -180 33 -296 88 -102
47 -109 49 -126 34 -10 -10 -22 -14 -25 -10 -12 11 -8 -2 23 -92 17 -47 29
-89 26 -94 -3 -4 -34 -16 -70 -25 -70 -19 -84 -35 -67 -78 7 -19 39 -40 122
-82 62 -31 119 -56 126 -56 18 0 16 -24 -7 -100 -26 -86 -26 -94 12 -135 43
-45 184 -103 338 -138 239 -54 360 -67 650 -72 264 -4 452 8 625 40 249 45
362 81 462 143 62 39 69 64 44 156 -25 90 -26 106 -7 106 27 0 236 112 247
132 22 41 4 63 -67 84 -37 10 -68 24 -71 31 -2 6 7 44 22 84 24 66 24 73 10
95 -8 13 -21 24 -27 24 -6 0 -52 -20 -102 -44 -97 -47 -207 -80 -320 -96 -50
-6 -75 -15 -90 -31 -12 -12 -15 -19 -8 -15 7 4 12 1 13 -6 1 -7 2 -39 4 -70
l3 -57 -87 -20 c-47 -11 -108 -23 -136 -27 -27 -3 -59 -8 -70 -10 -43 -8 -243
-24 -305 -24 l-65 0 82 45 c93 49 221 133 272 177 40 36 51 30 21 -10 -25 -33
-22 -72 7 -104 24 -27 84 -23 117 7 32 30 37 76 6 68 -32 -8 -25 28 13 64 43
42 99 71 148 79 32 5 46 2 69 -14 l29 -22 21 27 c23 29 19 56 -11 88 -18 19
-18 20 53 52 39 18 78 33 88 33 19 0 50 -30 50 -48 0 -15 17 -16 25 -2 3 6 1
10 -5 10 -6 0 -9 4 -6 8 3 5 -8 22 -24 37 -26 24 -39 29 -92 31 -41 2 -52 1
-34 -4 17 -4 29 -11 28 -17 -2 -5 -40 -25 -85 -43 -45 -18 -93 -41 -106 -51
l-24 -18 51 5 c58 5 82 -7 82 -43 0 -32 -11 -37 -33 -18 -45 42 -161 8 -244
-72 -48 -47 -59 -93 -23 -102 23 -6 25 -14 8 -31 -15 -15 -61 -15 -76 0 -7 7
-12 25 -12 40 0 29 48 84 151 173 135 117 198 239 269 521 55 217 57 235 35
287 -17 42 -19 67 -5 67 15 0 40 -56 41 -92 0 -32 1 -32 15 12 23 75 18 139
-16 203 -18 34 -30 72 -30 93 0 37 0 37 21 18 31 -28 49 -68 49 -111 1 -32 2
-35 11 -19 7 11 10 55 7 110 -3 77 -9 102 -33 150 -17 33 -48 73 -71 92 -42
35 -73 88 -59 102 4 4 22 -11 41 -32 33 -39 43 -41 25 -8 -5 9 -12 46 -16 82
-7 65 -19 99 -39 112 -19 13 -56 8 -63 -8 -5 -13 -7 -13 -14 -2 -6 9 -9 6 -9
-11 0 -23 1 -23 18 -8 24 22 35 21 55 -1 20 -22 34 -101 18 -103 -6 -1 -15 -3
-21 -4 -5 -1 -14 -3 -19 -4 -11 -1 6 -69 21 -89 6 -7 8 -15 5 -18 -9 -9 -202
31 -356 74 l-133 37 5 60 c3 33 18 101 33 150 15 50 28 101 28 115 0 14 7 30
16 37 15 12 -124 -34 -171 -57 -26 -12 -26 -13 -8 -31 25 -25 24 -44 -3 -63
-29 -20 -58 -20 -87 0 -23 17 -25 43 -6 99 4 15 -7 37 -45 85 -29 36 -55 68
-59 72 -4 5 -33 -24 -65 -63z m103 -24 c41 -54 41 -56 26 -84 -21 -41 -19 -65
8 -96 62 -71 198 -21 166 61 -5 15 -8 28 -7 29 5 4 101 35 109 35 4 0 -6 -33
-22 -74 -15 -40 -31 -92 -35 -115 l-7 -43 -36 7 c-174 33 -341 33 -497 0 -31
-7 -32 -6 -44 46 -7 30 -23 81 -36 113 -13 33 -22 61 -21 63 3 3 42 -9 106
-32 11 -4 12 -8 3 -17 -38 -38 10 -108 75 -108 81 0 128 61 97 126 l-16 34 42
55 c23 30 44 55 45 55 1 0 21 -25 44 -55z m106 -295 c114 -16 125 -20 125 -41
0 -10 -1 -19 -2 -19 -2 0 -39 7 -83 15 -126 23 -354 17 -447 -11 -13 -4 -18 0
-18 15 0 16 10 22 53 30 112 22 261 26 372 11z m45 -94 c41 -8 152 -35 245
-60 94 -26 210 -52 259 -59 l88 -12 -7 -365 c-8 -428 -15 -496 -70 -625 -82
-192 -316 -410 -634 -591 l-74 -43 -50 26 c-28 14 -87 49 -132 78 -323 208
-498 400 -564 619 -29 96 -42 311 -39 635 l3 264 105 18 c58 10 170 37 250 60
80 23 177 47 215 54 93 17 312 18 405 1z m660 -153 c36 -40 64 -99 74 -151 l6
-32 -37 25 -37 25 -13 -32 c-16 -37 -10 -78 19 -127 16 -28 41 -121 33 -121
-1 0 -19 7 -40 16 -31 13 -37 13 -32 1 3 -7 2 -20 -3 -27 -4 -7 1 -36 11 -65
18 -52 18 -53 -5 -144 -27 -107 -41 -129 -32 -51 4 30 8 205 9 387 1 183 5
333 8 333 4 0 22 -17 39 -37z m-1987 -1287 c78 -46 231 -95 346 -109 73 -9 96
-16 96 -27 0 -17 -4 -18 -149 -6 -105 8 -110 8 -127 -13 -9 -11 -27 -64 -40
-116 -13 -52 -28 -95 -34 -95 -13 0 -223 103 -250 123 -18 14 -15 16 40 27 80
16 137 40 131 54 -12 28 -76 191 -76 193 0 6 10 1 63 -31z m2301 -32 c-13 -36
-31 -78 -39 -94 -8 -16 -15 -33 -15 -38 0 -13 62 -37 135 -52 55 -11 58 -13
40 -27 -30 -22 -233 -123 -248 -123 -8 0 -22 34 -36 93 -13 50 -30 103 -38
116 -15 23 -18 24 -112 17 -53 -4 -113 -9 -135 -13 -33 -5 -38 -4 -34 13 3 15
18 21 88 30 132 18 214 43 313 94 51 26 95 48 98 49 4 0 -4 -29 -17 -65z
m-1925 -148 l69 -1 -5 -35 c-3 -19 -7 -36 -7 -37 -5 -6 -123 41 -132 53 -6 8
-19 14 -28 14 -9 0 -16 5 -16 10 0 6 11 8 25 4 14 -3 56 -7 94 -8z m1621 4 c0
-5 -6 -10 -14 -10 -8 0 -16 -4 -18 -9 -4 -13 -138 -62 -138 -52 0 5 -3 23 -6
40 -6 30 -5 32 17 26 20 -4 65 0 152 14 4 0 7 -3 7 -9z m-1769 -34 c68 -46
305 -112 514 -143 150 -22 601 -25 740 -5 235 33 410 79 528 138 48 25 69 31
72 22 29 -88 104 -380 100 -390 -15 -38 -168 -105 -327 -143 -222 -53 -434
-75 -723 -75 -400 0 -759 58 -963 156 -43 21 -77 44 -83 57 -7 17 2 63 41 201
27 99 50 186 50 193 0 19 11 16 51 -11z"/>
<path d="M1280 2406 c-36 -8 -126 -32 -200 -54 -74 -21 -166 -45 -205 -52 -38
-6 -80 -14 -93 -16 l-23 -5 2 -207 c3 -359 14 -538 39 -617 71 -229 280 -439
641 -647 l45 -27 101 63 c307 192 456 335 544 521 58 122 67 198 72 582 l5
332 -37 6 c-44 6 -283 65 -411 101 -82 23 -118 28 -255 30 -107 2 -182 -1
-225 -10z m350 -22 c52 -8 100 -16 105 -18 6 -1 30 -8 55 -15 25 -7 52 -15 60
-18 8 -3 20 -7 25 -8 6 -2 30 -9 55 -16 25 -7 50 -14 55 -14 35 -4 172 -39
183 -47 9 -8 11 -83 7 -337 -2 -179 -7 -339 -10 -356 -39 -209 -137 -347 -390
-553 -36 -29 -258 -172 -277 -178 -19 -6 -148 61 -186 96 -9 9 -24 19 -32 22
-26 10 -173 123 -225 174 -60 58 -122 133 -156 189 -31 52 -70 135 -62 135 3
0 1 6 -5 13 -29 34 -41 185 -39 490 1 168 5 309 9 313 4 3 18 8 31 9 42 5 142
26 162 34 11 5 56 19 100 30 44 12 95 26 114 32 108 35 284 45 421 23z"/>
<path d="M1370 2300 c-17 -18 -38 -45 -47 -61 -11 -19 -25 -29 -41 -29 -26 0
-62 -34 -123 -116 -65 -88 -83 -151 -54 -190 8 -10 15 -26 15 -36 0 -9 4 -18
8 -20 10 -3 143 -203 154 -231 4 -10 1 -64 -8 -120 -8 -56 -17 -113 -19 -127
-2 -14 -9 -56 -15 -95 -12 -82 -22 -188 -14 -163 3 9 23 126 44 260 l38 243
-95 144 c-122 183 -124 188 -93 243 32 58 127 185 143 191 17 7 223 -64 242
-84 13 -13 14 -20 4 -42 -32 -70 -132 -84 -189 -27 -21 21 -28 8 -10 -20 6
-10 3 -21 -12 -37 l-21 -23 33 0 c44 0 133 -54 165 -100 37 -54 51 -119 36
-170 -8 -26 -20 -44 -34 -49 -73 -28 -74 -30 -12 -28 l60 2 5 -105 5 -105 8
64 c11 98 9 123 -13 146 -13 14 -18 28 -14 39 6 16 8 16 25 0 11 -10 17 -25
14 -34 -6 -18 18 -30 60 -30 16 0 14 4 -12 22 -43 31 -55 54 -58 108 -4 71
-26 130 -62 165 -18 17 -31 34 -28 37 8 8 65 -3 66 -13 1 -5 2 -14 3 -20 2
-18 38 -39 69 -39 18 0 42 -11 64 -30 18 -16 41 -30 49 -30 23 0 56 20 84 50
111 121 116 132 70 184 -18 20 -37 36 -43 36 -6 0 6 -17 26 -38 20 -21 37 -42
37 -48 0 -5 -33 -42 -73 -82 -78 -77 -102 -87 -137 -52 l-20 20 42 58 c23 31
57 75 75 98 18 23 33 51 33 63 0 27 -63 97 -95 105 -13 3 -27 15 -30 26 -9 27
-74 70 -111 73 -16 1 -36 10 -45 21 -10 12 -33 20 -67 24 -48 4 -54 2 -82 -28z
m117 8 c18 -7 33 -17 33 -23 0 -8 -34 -64 -74 -122 -2 -2 -118 38 -125 44 -2
1 15 27 38 58 45 60 64 66 128 43z m136 -63 c20 -14 37 -33 37 -42 0 -19 -134
-229 -162 -255 -18 -16 -21 -16 -63 2 -24 10 -46 16 -49 13 -3 -3 -19 0 -36 7
-47 19 -22 37 28 21 52 -17 103 -1 136 42 40 53 38 80 -6 103 -18 9 -35 18
-37 20 -2 2 13 28 34 59 44 63 62 68 118 30z m148 -127 l19 -27 -72 -100 c-41
-56 -83 -103 -94 -107 -20 -5 -104 29 -104 42 0 8 85 138 131 201 l40 54 30
-18 c17 -10 40 -30 50 -45z"/>
<path d="M1826 1802 c-8 -59 -53 -157 -95 -205 -29 -33 -32 -41 -27 -84 3 -26
8 -122 12 -212 3 -90 10 -175 15 -190 9 -26 8 5 -7 305 -6 117 -5 134 12 163
10 17 22 31 26 31 24 0 98 222 78 235 -4 2 -10 -17 -14 -43z"/>
<path d="M1460 1464 c0 -5 -9 -101 -20 -214 -13 -130 -16 -208 -10 -214 6 -6
11 -4 14 5 8 23 28 420 22 427 -3 3 -6 1 -6 -4z"/>
<path d="M1240 1075 c22 -13 78 -32 105 -36 6 -1 20 -5 32 -10 13 -5 25 -4 28
1 4 6 -3 10 -14 10 -11 0 -51 11 -89 25 -78 28 -99 31 -62 10z"/>
<path d="M1659 1060 c-26 -10 -84 -23 -130 -29 l-84 -10 90 4 c62 2 105 10
138 24 26 11 47 23 47 26 0 7 -10 5 -61 -15z"/>
<path d="M511 621 c-23 -86 -41 -159 -41 -163 0 -20 158 -85 282 -117 517
-133 1313 -99 1674 73 41 19 74 38 74 42 0 7 -76 286 -85 312 -3 9 -17 6 -54
-12 -105 -54 -346 -111 -571 -136 -122 -14 -477 -14 -600 0 -217 24 -474 83
-586 134 l-51 24 -42 -157z m109 95 l33 -14 -24 -12 c-13 -7 -41 -29 -62 -49
l-38 -36 15 43 c8 23 13 42 10 42 -2 0 0 9 6 20 13 24 18 24 60 6z m1778 2
c11 -15 56 -187 50 -194 -3 -2 -18 15 -34 37 -16 22 -46 62 -66 89 l-37 48 22
16 c27 19 51 20 65 4z m-158 -45 c-1 -21 -19 -35 -36 -29 -18 7 -18 8 0 22 22
15 36 18 36 7z m-1528 -27 c11 -8 15 -20 11 -34 -7 -27 -8 -27 -33 -2 -29 29
-56 11 -74 -48 -18 -61 -7 -86 35 -80 26 4 30 2 27 -16 -6 -44 -88 -25 -108
25 -16 37 2 107 36 144 26 28 77 33 106 11z m1628 -37 c18 -28 47 -70 65 -93
l32 -43 -28 -10 c-25 -10 -28 -8 -34 14 -4 17 -11 23 -21 19 -9 -3 -23 -6 -31
-6 -12 0 -14 -7 -10 -29 5 -25 3 -30 -18 -34 l-25 -4 0 89 c0 49 -5 98 -10
109 -9 16 -7 21 12 29 13 5 26 9 29 9 3 1 21 -22 39 -50z m-205 21 c-21 -24
-41 -26 -48 -6 -6 15 9 23 47 25 18 1 18 0 1 -19z m-1328 -10 c12 0 13 -3 4
-14 -12 -14 -43 -108 -37 -113 7 -7 86 88 81 97 -4 6 7 10 25 10 25 0 31 -3
26 -16 -11 -29 -37 -149 -38 -176 -1 -25 -4 -27 -27 -21 -14 3 -27 6 -28 7 -1
1 7 28 18 60 10 33 19 62 19 65 0 3 -20 -15 -45 -39 -26 -26 -43 -50 -40 -58
4 -11 -1 -13 -22 -7 -16 4 -29 8 -30 9 -1 1 4 20 12 41 7 22 19 68 26 103 10
46 17 61 27 57 7 -3 21 -5 29 -5z m166 0 c6 0 1 -7 -12 -16 -19 -14 -25 -14
-31 -3 -11 18 -2 32 17 25 8 -3 20 -6 26 -6z m1262 -159 c8 -24 14 -45 12 -46
-1 -1 -14 -5 -29 -9 -20 -4 -26 -3 -23 7 3 7 -1 42 -8 77 l-14 65 -8 -67 c-4
-38 -10 -68 -14 -68 -3 0 -19 23 -34 51 -16 28 -30 49 -32 47 -6 -6 17 -103
26 -113 15 -16 10 -25 -15 -25 -21 0 -24 6 -31 56 -4 31 -12 78 -19 105 -7 27
-10 49 -5 49 4 0 14 3 22 6 10 4 24 -11 43 -47 l29 -52 8 39 c4 22 6 47 3 56
-2 12 5 20 23 26 25 8 26 7 38 -52 7 -33 19 -81 28 -105z m-1081 130 c3 -5 -1
-14 -9 -21 -12 -10 -18 -10 -30 0 -8 7 -15 16 -15 21 0 12 47 12 54 0z m208
-10 l27 -1 -24 -26 c-27 -29 -45 -81 -45 -128 0 -33 37 -116 51 -116 5 0 9 -4
9 -10 0 -6 -27 -10 -60 -10 -63 0 -77 13 -45 40 9 7 13 20 11 29 -3 9 -7 34
-11 56 -12 87 -18 111 -31 132 -24 38 -18 44 39 39 28 -2 64 -4 79 -5z m-662
-16 c7 -8 10 -25 6 -39 -5 -22 -8 -23 -31 -13 -25 12 -30 23 -19 51 8 20 28
21 44 1z m373 -1 c20 -4 25 -9 18 -18 -6 -7 -15 -52 -22 -102 l-12 -90 -29 4
c-20 3 -26 8 -19 16 8 10 31 125 31 154 0 7 -9 12 -19 12 -16 0 -22 -11 -31
-57 -18 -86 -35 -113 -72 -113 -24 0 -23 36 1 43 14 3 23 23 37 87 l17 82 36
-7 c20 -3 49 -8 64 -11z m935 -22 c2 -42 17 -127 27 -154 5 -12 2 -18 -8 -18
-9 0 -22 -3 -31 -6 -11 -4 -15 0 -14 18 1 12 1 43 -1 68 l-2 45 -21 -45 c-11
-25 -21 -57 -21 -72 0 -23 -5 -28 -26 -28 -25 0 -26 3 -29 61 -1 33 -6 79 -12
102 -5 23 -8 42 -7 43 1 1 15 4 30 8 26 6 28 5 22 -15 -4 -11 -4 -42 0 -67 l8
-47 18 55 c11 30 17 60 15 66 -6 16 3 24 29 24 18 0 22 -6 23 -38z m-778 -66
c6 -39 16 -86 21 -105 4 -19 7 -36 6 -37 -1 -1 -14 0 -28 3 -21 4 -25 9 -21
30 4 23 2 24 -29 21 -28 -2 -34 -7 -33 -26 0 -16 -4 -21 -13 -17 -8 3 -21 5
-28 5 -9 0 -6 15 11 58 13 31 29 78 35 103 11 42 14 45 40 41 26 -4 28 -8 39
-76z m605 27 c0 -32 3 -82 7 -110 7 -53 7 -53 -20 -53 -26 0 -27 2 -24 41 l4
40 -34 -6 c-43 -8 -68 13 -68 58 0 18 -3 42 -6 55 -6 19 -3 22 22 22 28 0 29
-1 26 -45 -3 -34 0 -46 12 -51 33 -13 43 2 36 50 -7 46 -4 50 35 55 6 0 10
-24 10 -56z m-342 16 c25 -30 24 -138 -2 -170 -23 -28 -81 -31 -109 -6 -40 36
-33 156 10 190 28 23 75 16 101 -14z m177 7 c0 -19 -4 -22 -25 -18 -24 4 -25
2 -25 -44 1 -27 5 -68 9 -91 8 -42 8 -43 -19 -43 l-27 0 -2 87 c0 48 -4 89 -7
92 -3 3 -14 0 -24 -7 -18 -11 -20 -9 -20 12 0 24 3 25 68 29 37 2 68 4 70 5 1
1 2 -9 2 -22z m-1119 -72 c8 -10 5 -10 -15 -1 -27 12 -30 25 -19 67 6 23 8 22
15 -14 5 -22 13 -45 19 -52z m1154 -54 c10 -11 25 -20 34 -20 9 0 25 -16 36
-36 25 -46 13 -54 -79 -54 -66 0 -68 1 -53 18 11 12 17 36 17 65 0 52 14 61
45 27z m485 -15 c10 -12 6 -17 -22 -28 -44 -19 -62 -3 -28 23 30 24 34 24 50
5z m-1190 -45 c11 -21 -1 -27 -34 -14 -13 5 -14 9 -5 20 16 19 26 18 39 -6z
m550 6 c0 -8 7 -22 16 -30 23 -23 10 -34 -38 -32 -48 2 -49 4 -16 46 26 32 38
37 38 16z m438 -14 c2 -7 -7 -12 -23 -12 -24 0 -26 2 -15 15 14 17 31 16 38
-3z m-792 -17 c18 -14 17 -14 -13 -15 -33 0 -52 15 -31 23 20 8 23 8 44 -8z"/>
<path d="M2300 559 c0 -40 6 -50 26 -42 19 7 17 23 -6 53 l-20 25 0 -36z"/>
<path d="M1177 478 c-4 -14 -10 -33 -13 -42 -4 -12 0 -16 15 -16 22 0 27 26
12 65 -7 18 -8 17 -14 -7z"/>
<path d="M1406 494 c-3 -9 -6 -40 -6 -70 0 -58 16 -77 49 -57 17 11 27 79 16
120 -6 27 -49 32 -59 7z"/>
<path d="M2221 2649 c-29 -27 -21 -34 16 -13 27 16 31 16 65 0 46 -22 64 -60
72 -153 4 -51 19 -104 47 -175 50 -124 56 -183 35 -307 -9 -52 -15 -96 -12
-98 2 -2 14 40 26 94 28 122 59 183 110 212 63 35 153 21 180 -28 25 -47 0
-111 -43 -111 -28 0 -30 20 -3 45 31 29 32 39 6 65 -21 21 -74 27 -100 10 -8
-5 -11 -10 -6 -10 6 0 -2 -13 -17 -28 -15 -16 -48 -79 -73 -142 -25 -62 -67
-156 -93 -209 -54 -106 -82 -171 -76 -171 3 0 36 47 75 105 50 75 86 116 126
146 30 22 58 38 61 35 14 -13 -19 -86 -50 -110 -17 -15 -45 -38 -62 -52 l-30
-25 35 21 c50 29 114 27 145 -5 28 -27 32 -62 10 -91 -14 -19 -14 -19 -15 3
-1 58 -106 72 -181 24 -68 -43 -138 -155 -174 -281 -4 -15 7 -5 29 28 46 66
98 101 163 108 98 12 160 -46 128 -121 -16 -39 -51 -53 -85 -35 l-22 12 23 12
c47 23 30 86 -27 100 -34 9 -101 -23 -144 -68 l-35 -37 30 15 c66 35 74 13 11
-31 -25 -18 -66 -65 -100 -114 -31 -46 -64 -95 -73 -109 -11 -15 1 -8 30 18
64 58 128 86 176 77 47 -9 81 -41 81 -76 0 -36 18 -47 25 -17 9 35 -10 75 -47
99 -27 16 -44 19 -95 16 l-63 -5 19 27 c11 14 44 48 75 75 50 45 53 51 38 63
-16 12 -16 14 2 28 24 18 67 20 84 3 16 -16 15 -48 -2 -48 -8 0 -17 -8 -20
-17 -8 -21 19 -49 56 -58 23 -6 34 -1 63 28 45 45 48 99 10 145 -46 55 -133
64 -217 21 -21 -11 -38 -17 -38 -13 0 18 75 104 110 128 33 22 51 26 88 24 43
-3 48 -6 57 -35 10 -30 12 -31 35 -20 68 34 55 143 -21 169 -28 10 -28 11 -14
38 18 34 19 83 4 111 -10 19 -11 19 -40 -6 -17 -14 -34 -25 -38 -25 -4 0 -17
-9 -29 -20 -12 -12 -22 -18 -22 -15 0 16 94 232 112 257 33 47 88 58 88 18 0
-10 -7 -20 -15 -24 -8 -3 -15 -16 -15 -29 0 -62 85 -66 116 -6 21 42 9 92 -31
128 -64 56 -160 48 -227 -19 l-38 -38 -6 25 c-10 37 3 193 17 209 8 10 8 14 0
14 -6 0 -11 7 -11 15 0 8 -4 15 -8 15 -4 0 -8 19 -9 41 -2 51 -7 56 -42 42
-28 -10 -28 -9 -45 43 -29 92 -111 133 -165 83z m226 -186 c-4 -27 -9 -61 -12
-78 l-7 -30 23 35 c22 35 39 28 20 -9 -6 -11 -11 -40 -11 -65 0 -25 -4 -46 -8
-46 -5 0 -21 37 -36 83 -28 83 -27 105 2 140 26 29 35 20 29 -30z"/>
</g>
</svg>
